<?xml version="1.0" encoding="UTF-8"?><svg xmlns="http://www.w3.org/2000/svg" viewBox="0 0 162.31 162.01"><defs><style>.d{fill:#fff;}.e{fill:#080b0e;}</style></defs><g id="a"/><g id="b"><g id="c"><g><path class="e" d="M162.28,96.29c.57,20.21-8.19,35.32-25.42,45.02-23.91,13.45-49.54,21.53-77.3,20.64-15.64-.5-28.15-8.01-36.35-21.09C7.51,115.82-.94,88.36,.08,58.64c.54-15.6,8.6-27.88,21.78-35.94C46.67,7.52,73.69-.9,102.98,.08c15.87,.53,28.12,8.76,36.46,22.05,14.21,22.64,20.84,47.73,22.84,74.16Z"/><g><path class="d" d="M92.34,111.57c-6.26,2.28-12.96,2.67-18.88,1.08-14.71-3.95-25.39-17.48-25.39-32.16,0-11.7,5.26-19.36,9.68-23.73,6.08-6.01,14.53-9.58,22.67-9.58,.1,0,.21,0,.31,0,15.52,.17,25.35,11.89,25.44,12,1.35,1.66,3.78,1.9,5.43,.56,1.65-1.34,1.91-3.78,.56-5.43-.49-.6-12.13-14.64-31.35-14.85-10.38-.06-20.79,4.19-28.49,11.8-7.72,7.63-11.97,18.01-11.97,29.22,0,18.11,13.08,34.78,31.11,39.62,3.05,.82,6.25,1.22,9.5,1.22,4.68,0,9.47-.84,14.04-2.51,11.87-4.34,23.47-15.76,23.05-28.96-2.62,1.92-5.47,3.67-8.47,5.33-2.31,7.25-9.61,13.6-17.23,16.38Z"/><path class="d" d="M121.5,71.35c-.07,.07-3.39,3.63-8.36,7.2-5.16-5.03-13.38-7.42-19.32-7.42-4.87,0-8.59,1.28-11.07,3.79-1.95,1.98-2.95,4.57-2.91,7.49,.08,5.25,3.85,10.93,14.16,11.16,5.75,.14,11.38-1.72,16.29-4.24,3.43-1.74,5.9-3.48,7.01-4.27,5.76-4.07,9.56-8.13,9.88-8.48,1.45-1.57,1.35-4.01-.22-5.46-1.56-1.44-4-1.35-5.46,.21Zm-27.34,14.5c-2.99-.07-6.56-.74-6.6-3.56-.02-1.23,.52-1.78,.69-1.95,.55-.56,2-1.49,5.57-1.49,3.78,0,8.83,1.45,12.33,3.95-3.76,1.85-7.81,3.14-11.99,3.05Z"/></g></g></g></g></svg>