<?xml version="1.0" encoding="UTF-8"?>
<svg id="Layer_1" data-name="Layer 1" xmlns="http://www.w3.org/2000/svg" xmlns:xlink="http://www.w3.org/1999/xlink" viewBox="0 0 817.72 305.12">
  <defs>
    <style>
      .cls-1 {
        fill: url(#linear-gradient);
      }

      .cls-1, .cls-2 {
        stroke-width: 0px;
      }

      .cls-2 {
        fill: #000;
      }
    </style>
    <linearGradient id="linear-gradient" x1="429.28" y1="-15.93" x2="804.35" y2="251.98" gradientUnits="userSpaceOnUse">
      <stop offset=".2" stop-color="#03f4d4"/>
      <stop offset="1" stop-color="#6b43fc"/>
    </linearGradient>
  </defs>
  <path class="cls-1" d="M815.89,139.3c-.3-7.36-5.54-13.58-12.75-15.11l-51.42-10.96,19.19-33.92c.73-1.28,1.94-2.23,3.36-2.62l19.88-5.47c1.94-.53,2.54-2.99,1.06-4.36l-32.84-30.25c-5.42-4.99-13.52-5.68-19.7-1.67l-44.11,28.62-10.42-37.56c-.4-1.42-.21-2.95.52-4.23l10.19-17.93c.99-1.75-.32-3.91-2.33-3.83l-44.61,1.83c-7.36.3-13.58,5.54-15.11,12.75l-10.96,51.43-33.92-19.19c-1.28-.73-2.23-1.94-2.62-3.36l-5.47-19.88c-.53-1.94-2.99-2.54-4.36-1.06l-30.25,32.84c-4.99,5.42-5.68,13.52-1.67,19.7l28.62,44.11-37.56,10.42c-1.42.4-2.95.21-4.23-.52l-17.93-10.19c-1.75-.99-3.91.32-3.83,2.33l1.83,44.61c.3,7.36,5.54,13.58,12.75,15.11l51.43,10.96-19.19,33.92c-.73,1.28-1.94,2.23-3.36,2.62l-19.88,5.47c-1.94.53-2.54,2.99-1.06,4.36l32.84,30.25c5.42,4.99,13.52,5.68,19.7,1.67l44.11-28.62,10.42,37.56c.4,1.42.21,2.95-.52,4.23l-10.19,17.93c-.99,1.75.32,3.91,2.33,3.83l44.61-1.83c7.36-.3,13.58-5.54,15.11-12.75l10.96-51.43,33.92,19.19c1.28.73,2.23,1.94,2.62,3.36l5.47,19.88c.53,1.94,2.99,2.54,4.36,1.06l30.25-32.84c4.99-5.42,5.68-13.52,1.67-19.7l-28.62-44.11,37.56-10.42c1.42-.4,2.95-.21,4.23.52l17.93,10.19c1.75.99,3.91-.32,3.83-2.33l-1.83-44.61ZM748.88,44.5c1.81-1.17,4.18-.97,5.76.49l19.41,17.88c.74.68.44,1.91-.53,2.18l-4.62,1.27c-2.85.78-5.28,2.68-6.73,5.25l-22.15,39.16-30.15-6.42-8.11-29.24,47.12-30.57ZM647.95,16.96c.45-2.11,2.27-3.64,4.42-3.73l26.37-1.08c1-.04,1.66,1.04,1.17,1.92l-2.37,4.16c-1.46,2.57-1.84,5.63-1.05,8.47l12.03,43.36-25.86,16.78-26.41-14.94,11.71-54.94ZM557.11,68.85c-1.17-1.81-.97-4.18.49-5.76l17.88-19.41c.68-.74,1.91-.44,2.18.53l1.27,4.62c.78,2.85,2.68,5.28,5.25,6.73l39.16,22.15-6.42,30.15-29.24,8.11-30.57-47.12ZM529.56,169.77c-2.11-.45-3.64-2.27-3.73-4.42l-1.08-26.37c-.04-1,1.04-1.66,1.92-1.17l4.16,2.37c2.57,1.46,5.63,1.84,8.47,1.05l43.36-12.03,16.78,25.86-14.94,26.41-54.94-11.71ZM581.45,260.61c-1.81,1.17-4.18.97-5.76-.49l-19.41-17.88c-.74-.68-.44-1.91.53-2.18l4.62-1.27c2.85-.78,5.28-2.68,6.73-5.25l22.15-39.17,30.15,6.43,8.11,29.24-47.13,30.57ZM682.37,288.16c-.45,2.11-2.27,3.64-4.42,3.73l-26.37,1.08c-1,.04-1.66-1.04-1.17-1.92l2.37-4.16c1.46-2.57,1.84-5.63,1.05-8.47l-12.03-43.36,25.86-16.78,26.41,14.94-11.71,54.94ZM704.03,188.02h-.32s-.02.09-.02.09h-.02s0,.09,0,.09l-7.1,33.32-29.01-16.41-.23-.22-.07.04h-.02s-.05.05-.05.05l-28.58,18.54-8.91-32.11v-.32s-.09-.02-.09-.02v-.02s-.08,0-.08,0l-33.32-7.1,16.41-29,.22-.24-.04-.07v-.02s-.04-.05-.04-.05l-18.55-28.59,32.11-8.91h.32s.02-.09.02-.09h.02s0-.09,0-.09l7.1-33.32,29,16.41.24.22.07-.04h.02s.05-.05.05-.05l28.59-18.54,8.91,32.11v.32s.09.02.09.02v.02s.08,0,.08,0l33.32,7.1-16.41,29-.22.24.04.07v.02s.04.05.04.05l18.54,28.59-32.11,8.91ZM773.22,236.27c1.17,1.81.97,4.18-.49,5.76l-17.88,19.41c-.68.74-1.91.44-2.18-.53l-1.27-4.62c-.78-2.85-2.68-5.28-5.25-6.73l-39.16-22.15,6.43-30.15,29.24-8.11,30.57,47.12ZM803.65,167.3l-4.16-2.37c-2.57-1.46-5.63-1.84-8.47-1.05l-43.36,12.03-16.78-25.86,14.94-26.41,54.94,11.71c2.11.45,3.64,2.27,3.73,4.42l1.08,26.37c.04,1-1.04,1.66-1.92,1.17Z"/>
  <g>
    <g>
      <path class="cls-2" d="M54.02,142.17c-3.32,0-6.09,1.85-8.3,5.54L0,223.75h19.59l33.76-57.23,14.72,24.79h-18.15l-7.86,13.39h33.98l11.29,19.04h20.7l-45.72-76.05c-2.21-3.69-4.98-5.54-8.3-5.54Z"/>
      <polygon class="cls-2" points="132.83 143.28 115.56 143.28 115.56 223.75 184.86 223.75 184.86 206.48 132.83 206.48 132.83 143.28"/>
      <polygon class="cls-2" points="250.39 143.28 222.27 178.81 194.16 143.28 171.02 143.28 212.97 194.53 212.97 223.75 230.24 223.75 230.24 194.53 272.31 143.28 250.39 143.28"/>
      <path class="cls-2" d="M303.63,142.17c-3.32,0-6.09,1.85-8.3,5.54l-45.72,76.05h19.59l33.76-57.23,14.72,24.79h-18.15l-7.86,13.39h33.98l11.29,19.04h20.7l-45.72-76.05c-2.21-3.69-4.98-5.54-8.3-5.54Z"/>
      <polygon class="cls-2" points="428.05 175.49 392.41 175.49 392.41 190.32 428.05 190.32 428.05 223.97 445.32 223.97 445.32 143.28 428.05 143.28 428.05 175.49"/>
      <rect class="cls-2" x="365.18" y="143.28" width="17.27" height="80.7"/>
      <path class="cls-2" d="M287.88,103.16c12.51,0,20.26-7.86,20.26-20.81,0-5.42-1.77-10.18-5.42-14.17-3.99-4.43-9.19-6.64-15.72-6.64-12.73,0-20.26,7.97-20.26,20.81,0,5.54,1.88,10.3,5.54,14.28,3.87,4.32,9.08,6.53,15.61,6.53ZM281.46,74.05c1.66-1.88,3.65-2.77,6.09-2.77s4.32.89,6.09,2.77c1.88,2.1,2.88,4.98,2.88,8.41,0,7.08-3.65,11.18-8.52,11.18-2.32,0-4.43-.89-6.09-2.77-1.88-2.1-2.88-4.98-2.88-8.41s.77-6.31,2.44-8.41Z"/>
      <rect class="cls-2" x="374.11" y="108.81" width="10.63" height="11.18"/>
      <rect class="cls-2" x="358.06" y="108.81" width="10.74" height="11.18"/>
      <path class="cls-2" d="M398.35,103.16h9.63c9.63,0,14.95-5.54,14.95-14.39,0-7.08-.11-16.61-.22-28.56-.11-14.06-.11-23.58-.22-28.67h-11.62c0,5.42.11,14.39.22,26.68.11,10.85.22,19.71.22,26.57,0,4.98-3.21,7.64-7.53,7.64h-14.28c-2.21,0-4.21-1-6.09-3.1-2.32-2.32-3.43-5.42-3.43-9.3-.22-7.42-.33-13.17-.33-17.27h-11.62l.22,21.92c0,2.55-1.11,4.54-3.43,5.98-1.77,1.22-3.65,1.77-5.76,1.77h-19.26c-3.1,0-5.09-2.99-5.09-6.97l-.44-53.91h-11.73l.33,58.56c0,4.21,1.33,7.53,3.76,9.85,2.1,2.1,4.76,3.21,7.86,3.21h29c6.09-.11,11.84-3.54,13.73-8.97.55,1.66,1.55,3.21,2.77,4.76,2.32,2.77,5.2,4.21,8.52,4.21h9.85Z"/>
      <polygon class="cls-2" points="449.49 103.16 448.94 31.54 437.31 31.54 437.87 103.16 449.49 103.16"/>
    </g>
    <g>
      <path class="cls-2" d="M2.76,263.32v9.72H0v-26.43h8.69c5.45,0,9.17,2.98,9.17,8.32s-3.72,8.39-9.17,8.39H2.76ZM2.76,248.96v12h5.89c3.94,0,6.44-2.17,6.44-6.04s-2.5-5.96-6.44-5.96H2.76Z"/>
      <path class="cls-2" d="M23.19,259.78c0-7.69,5.67-13.73,13.32-13.73s13.36,6.04,13.36,13.73-5.7,13.8-13.36,13.8-13.32-6.11-13.32-13.8ZM47,259.78c0-6.33-4.23-11.26-10.49-11.26s-10.49,4.93-10.49,11.26,4.27,11.34,10.49,11.34,10.49-5.01,10.49-11.34Z"/>
      <path class="cls-2" d="M69.94,250.36l-6.22,22.67h-2.87l-6.96-26.43h2.69l5.7,22.41,6.18-22.41h2.94l6.11,22.49,5.74-22.49h2.72l-6.96,26.43h-2.91l-6.18-22.67Z"/>
      <path class="cls-2" d="M108.37,273.03h-15.86v-26.43h15.6v2.39h-12.84v9.2h11.74v2.39h-11.74v10.05h13.1v2.39Z"/>
      <path class="cls-2" d="M116.06,273.03v-26.43h9.42c5.59,0,9.09,2.91,9.09,7.99,0,3.98-2.61,6.96-6.77,7.66l7.47,10.78h-3.31l-7.1-10.45h-6.04v10.45h-2.76ZM118.83,260.26h6.44c4.05,0,6.55-1.98,6.55-5.67s-2.5-5.67-6.55-5.67h-6.44v11.33Z"/>
      <path class="cls-2" d="M157.95,273.03h-15.86v-26.43h15.6v2.39h-12.84v9.2h11.74v2.39h-11.74v10.05h13.1v2.39Z"/>
      <path class="cls-2" d="M165.65,273.03v-26.43h7.51c8.46,0,13.14,5.37,13.14,13.1s-4.86,13.32-13.14,13.32h-7.51ZM168.41,270.64h4.67c6.7,0,10.42-4.38,10.42-10.93s-3.64-10.71-10.42-10.71h-4.67v21.64Z"/>
      <path class="cls-2" d="M212.73,273.03h-9.13v-26.43h8.58c5.12,0,8.13,2.47,8.13,6.81,0,2.61-1.66,4.86-4.34,5.85,3.57.88,5.41,3.2,5.41,6.37,0,4.71-3.46,7.4-8.65,7.4ZM206.18,248.85v9.42h5.85c3.57,0,5.59-1.77,5.59-4.71s-2.02-4.71-5.59-4.71h-5.85ZM206.18,260.52v10.27h6.4c3.86,0,6.15-1.92,6.15-5.23s-2.28-5.04-6.15-5.04h-6.4Z"/>
      <path class="cls-2" d="M237.35,273.03h-2.76v-9.9l-9.61-16.53h3.02l8.06,13.95,8.1-13.95h2.87l-9.68,16.53v9.9Z"/>
      <path class="cls-2" d="M272.58,273.4c-6.66,0-10.82-3.57-11.23-9.16h5.67c.15,2.91,2.02,4.78,5.45,4.78,2.83,0,4.86-1.25,4.86-3.39,0-1.66-1.29-2.65-3.53-3.09l-4.34-.84c-4.01-.78-7.1-2.94-7.1-7.32,0-4.71,4.16-8.1,9.86-8.1s10.27,3.46,10.64,8.98h-5.67c-.18-2.76-2.1-4.64-4.9-4.64s-4.27,1.54-4.27,3.39,1.66,2.58,3.57,2.94l4.53.92c4.64.92,7.14,3.05,7.14,6.96,0,5.04-4.05,8.57-10.67,8.57Z"/>
      <path class="cls-2" d="M295.55,264.42v8.61h-5.6v-26.43h9.75c6.44,0,10.45,3.06,10.45,8.8s-4.01,9.02-10.45,9.02h-4.16ZM295.55,251.31v8.39h4.12c3.16,0,4.93-1.66,4.93-4.27s-1.77-4.12-4.93-4.12h-4.12Z"/>
      <path class="cls-2" d="M334.31,273.03h-17.78v-26.43h17.52v4.86h-11.92v5.55h10.82v4.82h-10.82v6.33h12.18v4.86Z"/>
      <path class="cls-2" d="M339.69,259.78c0-7.73,5.81-13.73,13.25-13.73,6.96,0,12.4,4.64,13.32,11.41h-5.93c-.63-3.79-3.57-6.4-7.32-6.4-4.53,0-7.58,3.57-7.58,8.72s3.05,8.8,7.58,8.8c3.75,0,6.66-2.65,7.32-6.44h5.93c-.92,6.85-6.37,11.44-13.32,11.44-7.43,0-13.25-6.03-13.25-13.8Z"/>
      <path class="cls-2" d="M378.34,273.03v-21.38h-8.32v-5.04h22.27v5.04h-8.35v21.38h-5.59Z"/>
      <path class="cls-2" d="M398.22,273.03v-26.43h10.34c6.66,0,10.53,3.09,10.53,8.58,0,3.57-2.21,6.4-5.96,7.66l6.81,10.19h-6.66l-5.96-9.35h-3.5v9.35h-5.6ZM403.81,259.08h4.49c3.39,0,5.19-1.33,5.19-3.9s-1.8-3.94-5.19-3.94h-4.49v7.84Z"/>
      <path class="cls-2" d="M441.5,267.36h-10.27l-2.02,5.67h-5.63l9.94-26.43h6.11l9.86,26.43h-6l-1.99-5.67ZM432.82,262.91h7.14l-3.53-10.19-3.61,10.19Z"/>
    </g>
  </g>
</svg>