<?xml version="1.0" encoding="utf-8"?>
<!-- Generator: Adobe Illustrator 27.2.0, SVG Export Plug-In . SVG Version: 6.00 Build 0)  -->
<svg version="1.1" id="Layer_1" xmlns="http://www.w3.org/2000/svg" xmlns:xlink="http://www.w3.org/1999/xlink" x="0px" y="0px"
	 viewBox="0 0 590.1 207.7" style="enable-background:new 0 0 590.1 207.7;" xml:space="preserve">
<style type="text/css">
	.st0{fill:#FFFFFF;}
</style>
<g>
	<g>
		<path class="st0" d="M125.7,72h30.1V38.6c0-9.3-4.4-14-13.4-14H139c-8.9,0-13.4,4.7-13.4,14L125.7,72L125.7,72z M125.7,93.2
			l0.1,36.6c0,9.3,4.5,13.9,13.4,13.9h3.9c8.9,0,13.4-4.6,13.4-13.9v-18H177v17.1c0,23.5-11.4,35.5-34,35.5h-4.5
			c-22.6,0-34-11.9-34-32.7V42.2c0-26.3,11.4-38.2,34-38.2h4.5c22.6,0,34,11.9,34,35.4l-0.1,53.7L125.7,93.2L125.7,93.2z"/>
		<path class="st0" d="M211.9,135.4c5.8,5.2,12.5,8.1,19.5,8.1c7.8,0,12.3-3.8,12.3-12.8v-93c0-9-4.5-12.8-12.3-12.8
			c-7,0-13.7,2.9-19.5,8.1V135.4z M190.7,5.9h21.2V16c5-5.5,13.6-11.9,25.9-11.9c18.1,0,27,12.5,27,31.1v98.2
			c0,18.6-8.9,31.1-27,31.1c-12.3,0-20.9-6.1-25.9-11.3v50.6h-21.2V5.9z"/>
		<path class="st0" d="M328.3,136.2V84.6l-19.2,7.6c-7.8,3.2-10.3,7.3-10.3,16.3v23.8c0,7.6,3.6,11.3,10.3,11.3
			C315.5,143.6,321.4,141.2,328.3,136.2 M277.6,108.1c0-19.5,6.1-27.3,22.3-33.1l28.4-10.2V38.6c0-9.3-4.5-14.2-13.4-14.2h-3.4
			c-8.9,0-13.4,4.9-13.4,14.2v22.2h-20.6V39.5c0-23.5,11.4-35.4,34-35.4h4c22.6,0,34,11.9,34,35.4v123.2h-21.2v-9.9
			c-5.8,5.8-13.7,11.6-25.9,11.6c-17,0-24.8-10.2-24.8-27.6V108.1z"/>
		<path class="st0" d="M435.1,162.8h-21.2V36.3c0-7.8-3.6-11.3-10-11.3c-5.8,0-12,2.3-19.5,7.8v129.9h-21.2V5.9h21.2V16
			c6.2-6.1,14.2-12,25.9-12c10.9,0,18.1,4.7,22,12.8c7.6-6.7,16.5-12.8,28.7-12.8c16.4,0,24.8,10.5,24.8,27.6v131h-21.2V36.3
			c0-7.8-3.6-11.3-10-11.3c-5.8,0-12,2.3-19.5,7.8L435.1,162.8L435.1,162.8z"/>
	</g>
	<polygon class="st0" points="23,74.2 23,95.5 77.4,148.8 77.4,119.2 41.8,84.6 77.4,49.1 77.4,20.2 	"/>
	<polygon class="st0" points="512.7,49.1 548.3,84.6 512.7,119.4 512.7,148.8 567.1,95.5 567.1,74.2 512.7,20.2 	"/>
</g>
</svg>
