<?xml version="1.0" encoding="UTF-8"?>
<svg id="Layer_1" data-name="Layer 1" xmlns="http://www.w3.org/2000/svg" xmlns:xlink="http://www.w3.org/1999/xlink" viewBox="0 0 356.23 356.23">
  <defs>
    <style>
      .cls-1 {
        fill: url(#linear-gradient);
        stroke-width: 0px;
      }
    </style>
    <linearGradient id="linear-gradient" x1="-97.28" y1="-18.59" x2="340.62" y2="294.19" gradientUnits="userSpaceOnUse">
      <stop offset=".2" stop-color="#03f4d4"/>
      <stop offset="1" stop-color="#6b43fc"/>
    </linearGradient>
  </defs>
  <path class="cls-1" d="M354.09,162.63c-.35-8.6-6.47-15.85-14.89-17.64l-60.04-12.79,22.4-39.61c.85-1.5,2.27-2.61,3.93-3.06l23.21-6.39c2.27-.62,2.96-3.49,1.23-5.09l-38.34-35.32c-6.33-5.83-15.79-6.63-23-1.95l-51.5,33.41-12.16-43.85c-.46-1.66-.24-3.45.61-4.94l11.89-20.93c1.16-2.04-.38-4.57-2.72-4.47l-52.08,2.13c-8.6.35-15.85,6.47-17.64,14.89l-12.79,60.04-39.61-22.4c-1.5-.85-2.61-2.27-3.06-3.93l-6.39-23.21c-.62-2.26-3.49-2.96-5.09-1.23l-35.32,38.34c-5.83,6.33-6.63,15.79-1.95,23l33.41,51.5-43.85,12.16c-1.66.46-3.45.24-4.94-.61l-20.93-11.89c-2.04-1.16-4.57.38-4.47,2.72l2.13,52.08c.35,8.6,6.47,15.85,14.89,17.64l60.04,12.79-22.41,39.61c-.85,1.5-2.27,2.61-3.93,3.06l-23.21,6.39c-2.27.62-2.96,3.49-1.23,5.09l38.34,35.32c6.33,5.83,15.79,6.63,23,1.95l51.5-33.41,12.16,43.85c.46,1.66.24,3.45-.61,4.94l-11.89,20.93c-1.16,2.04.38,4.57,2.72,4.47l52.08-2.13c8.6-.35,15.85-6.47,17.64-14.89l12.79-60.04,39.6,22.4c1.5.85,2.61,2.27,3.06,3.93l6.39,23.21c.62,2.26,3.49,2.96,5.09,1.23l35.32-38.34c5.83-6.33,6.63-15.79,1.95-23l-33.41-51.5,43.85-12.16c1.66-.46,3.45-.24,4.94.61l20.93,11.89c2.04,1.16,4.57-.38,4.47-2.72l-2.13-52.08ZM275.85,51.96c2.11-1.37,4.88-1.14,6.73.57l22.66,20.88c.86.8.52,2.23-.62,2.54l-5.39,1.48c-3.32.91-6.16,3.13-7.86,6.13l-25.86,45.72-35.2-7.5-9.47-34.13,55.02-35.69ZM158.02,19.8c.52-2.46,2.65-4.25,5.16-4.35l30.78-1.26c1.17-.05,1.94,1.21,1.36,2.24l-2.76,4.86c-1.7,3-2.14,6.57-1.22,9.89l14.04,50.62-30.2,19.59-30.83-17.44,13.67-64.14ZM51.96,80.38c-1.37-2.11-1.14-4.88.57-6.73l20.88-22.66c.8-.86,2.23-.52,2.54.62l1.48,5.39c.91,3.32,3.13,6.16,6.13,7.86l45.72,25.86-7.5,35.2-34.13,9.47-35.69-55.02ZM19.8,198.21c-2.46-.52-4.25-2.65-4.35-5.16l-1.26-30.78c-.05-1.17,1.21-1.94,2.24-1.36l4.86,2.76c3,1.7,6.57,2.14,9.89,1.22l50.62-14.04,19.59,30.2-17.44,30.83-64.14-13.67ZM80.38,304.27c-2.11,1.37-4.88,1.14-6.73-.57l-22.66-20.88c-.86-.8-.52-2.23.62-2.54l5.39-1.48c3.32-.91,6.16-3.13,7.86-6.13l25.86-45.73,35.2,7.5,9.47,34.13-55.02,35.69ZM198.21,336.43c-.52,2.46-2.65,4.25-5.16,4.35l-30.79,1.26c-1.17.05-1.94-1.21-1.36-2.24l2.76-4.86c1.7-3,2.14-6.57,1.22-9.89l-14.04-50.62,30.2-19.59,30.83,17.44-13.67,64.14ZM223.49,219.52l-.37.02-.02.09h-.03s0,.11,0,.11l-8.29,38.9-33.86-19.16-.27-.25-.08.05h-.02s-.06.05-.06.05l-33.37,21.65-10.4-37.49-.02-.37-.09-.02v-.02s-.1,0-.1,0l-38.91-8.29,19.15-33.86.25-.27-.05-.08v-.02s-.05-.06-.05-.06l-21.65-33.38,37.49-10.4.37-.02.02-.09h.03s0-.1,0-.1l8.29-38.91,33.86,19.15.28.25.08-.05h.02s.06-.05.06-.05l33.37-21.65,10.4,37.48.02.38.09.02v.02s.1,0,.1,0l38.91,8.29-19.15,33.86-.25.28.05.08v.02s.05.06.05.06l21.65,33.37-37.49,10.4ZM304.27,275.85c1.37,2.11,1.14,4.88-.57,6.73l-20.88,22.66c-.8.86-2.23.52-2.54-.62l-1.48-5.39c-.91-3.32-3.13-6.16-6.13-7.86l-45.72-25.86,7.5-35.21,34.13-9.47,35.69,55.02ZM339.81,195.32l-4.86-2.76c-3-1.7-6.57-2.14-9.89-1.22l-50.62,14.04-19.59-30.2,17.44-30.83,64.14,13.67c2.46.52,4.25,2.65,4.35,5.16l1.26,30.78c.05,1.17-1.21,1.94-2.24,1.36Z"/>
</svg>