<?xml version="1.0" encoding="UTF-8"?>
<svg id="Layer_1" data-name="Layer 1" xmlns="http://www.w3.org/2000/svg" xmlns:xlink="http://www.w3.org/1999/xlink" viewBox="0 0 364.02 601.7">
  <defs>
    <style>
      .cls-1 {
        fill: url(#linear-gradient);
      }

      .cls-1, .cls-2 {
        stroke-width: 0px;
      }

      .cls-2 {
        fill: #000;
      }
    </style>
    <linearGradient id="linear-gradient" x1="-89.48" y1="-18.59" x2="348.42" y2="294.19" gradientUnits="userSpaceOnUse">
      <stop offset=".2" stop-color="#03f4d4"/>
      <stop offset="1" stop-color="#6b43fc"/>
    </linearGradient>
  </defs>
  <g>
    <g>
      <path class="cls-2" d="M122.73,430.67c-10.24,0-16.29,6.41-16.29,16.73,0,4.45,1.51,8.28,4.45,11.48,3.12,3.47,7.3,5.25,12.55,5.25,10.06,0,16.29-6.32,16.29-16.73,0-4.36-1.42-8.19-4.36-11.39-3.2-3.56-7.39-5.34-12.64-5.34ZM123.53,456.48c-1.87,0-3.56-.71-4.9-2.23-1.51-1.69-2.31-4-2.31-6.76s.62-5.07,1.96-6.76c1.34-1.51,2.94-2.22,4.9-2.22s3.47.71,4.9,2.22c1.51,1.69,2.31,4,2.31,6.76,0,5.7-2.94,8.99-6.85,8.99Z"/>
      <rect class="cls-2" x="179.86" y="468.67" width="8.63" height="8.99"/>
      <rect class="cls-2" x="192.77" y="468.67" width="8.54" height="8.99"/>
      <path class="cls-2" d="M231.66,406.55h-9.35c0,4.36.09,11.57.18,21.45.09,8.72.18,15.84.18,21.36,0,4-2.58,6.14-6.05,6.14h-11.48c-1.78,0-3.38-.8-4.9-2.49-1.87-1.87-2.76-4.36-2.76-7.48-.18-5.96-.27-10.59-.27-13.88h-9.34l.18,17.62c0,2.05-.89,3.65-2.76,4.81-1.42.98-2.94,1.42-4.63,1.42h-15.48c-2.49,0-4.09-2.4-4.09-5.61l-.36-43.35h-9.43l.27,47.08c0,3.38,1.07,6.05,3.03,7.92,1.69,1.69,3.83,2.58,6.32,2.58h23.32c4.9-.09,9.52-2.85,11.04-7.21.45,1.33,1.25,2.58,2.23,3.83,1.87,2.22,4.18,3.38,6.85,3.38h15.66c7.74,0,12.01-4.45,12.01-11.57,0-5.7-.09-13.35-.18-22.96-.09-11.3-.09-18.96-.18-23.05Z"/>
      <polygon class="cls-2" points="252.93 406.55 243.59 406.55 244.03 464.14 253.38 464.14 252.93 406.55"/>
    </g>
    <path class="cls-1" d="M361.89,162.63c-.35-8.6-6.47-15.85-14.89-17.64l-60.04-12.79,22.4-39.61c.85-1.5,2.27-2.61,3.93-3.06l23.21-6.39c2.27-.62,2.96-3.49,1.23-5.09l-38.34-35.32c-6.33-5.83-15.79-6.63-23-1.95l-51.5,33.41-12.16-43.85c-.46-1.66-.24-3.45.61-4.94l11.89-20.93c1.16-2.04-.38-4.57-2.72-4.47l-52.08,2.13c-8.6.35-15.85,6.47-17.64,14.89l-12.79,60.04-39.61-22.4c-1.5-.85-2.61-2.27-3.06-3.93l-6.39-23.21c-.62-2.26-3.49-2.96-5.09-1.23l-35.32,38.34c-5.83,6.33-6.63,15.79-1.95,23l33.41,51.5-43.85,12.16c-1.66.46-3.45.24-4.94-.61l-20.93-11.89c-2.04-1.16-4.57.38-4.47,2.72l2.13,52.08c.35,8.6,6.47,15.85,14.89,17.64l60.04,12.79-22.41,39.61c-.85,1.5-2.27,2.61-3.93,3.06l-23.21,6.39c-2.27.62-2.96,3.49-1.23,5.09l38.34,35.32c6.33,5.83,15.79,6.63,23,1.95l51.5-33.41,12.16,43.85c.46,1.66.24,3.45-.61,4.94l-11.89,20.93c-1.16,2.04.38,4.57,2.72,4.47l52.08-2.13c8.6-.35,15.85-6.47,17.64-14.89l12.79-60.04,39.6,22.4c1.5.85,2.61,2.27,3.06,3.93l6.39,23.21c.62,2.26,3.49,2.96,5.09,1.23l35.32-38.34c5.83-6.33,6.63-15.79,1.95-23l-33.41-51.5,43.85-12.16c1.66-.46,3.45-.24,4.94.61l20.93,11.89c2.04,1.16,4.57-.38,4.47-2.72l-2.13-52.08ZM283.65,51.96c2.11-1.37,4.88-1.14,6.73.57l22.66,20.88c.86.8.52,2.23-.62,2.54l-5.39,1.48c-3.32.91-6.16,3.13-7.86,6.13l-25.86,45.72-35.2-7.5-9.47-34.13,55.02-35.69ZM165.81,19.8c.52-2.46,2.65-4.25,5.16-4.35l30.78-1.26c1.17-.05,1.94,1.21,1.36,2.24l-2.76,4.86c-1.7,3-2.14,6.57-1.22,9.89l14.04,50.62-30.2,19.59-30.83-17.44,13.67-64.14ZM59.75,80.38c-1.37-2.11-1.14-4.88.57-6.73l20.88-22.66c.8-.86,2.23-.52,2.54.62l1.48,5.39c.91,3.32,3.13,6.16,6.13,7.86l45.72,25.86-7.5,35.2-34.13,9.47-35.69-55.02ZM27.6,198.21c-2.46-.52-4.25-2.65-4.35-5.16l-1.26-30.78c-.05-1.17,1.21-1.94,2.24-1.36l4.86,2.76c3,1.7,6.57,2.14,9.89,1.22l50.62-14.04,19.59,30.2-17.44,30.83-64.14-13.67ZM88.17,304.27c-2.11,1.37-4.88,1.14-6.73-.57l-22.66-20.88c-.86-.8-.52-2.23.62-2.54l5.39-1.48c3.32-.91,6.16-3.13,7.86-6.13l25.86-45.73,35.2,7.5,9.47,34.13-55.02,35.69ZM206.01,336.43c-.52,2.46-2.65,4.25-5.16,4.35l-30.79,1.26c-1.17.05-1.94-1.21-1.36-2.24l2.76-4.86c1.7-3,2.14-6.57,1.22-9.89l-14.04-50.62,30.2-19.59,30.83,17.44-13.67,64.14ZM231.28,219.52l-.37.02-.02.09h-.03s0,.11,0,.11l-8.29,38.9-33.86-19.16-.27-.25-.08.05h-.02s-.06.05-.06.05l-33.37,21.65-10.4-37.49-.02-.37-.09-.02v-.02s-.1,0-.1,0l-38.91-8.29,19.15-33.86.25-.27-.05-.08v-.02s-.05-.06-.05-.06l-21.65-33.38,37.49-10.4.37-.02.02-.09h.03s0-.1,0-.1l8.29-38.91,33.86,19.15.28.25.08-.05h.02s.06-.05.06-.05l33.37-21.65,10.4,37.48.02.38.09.02v.02s.1,0,.1,0l38.91,8.29-19.15,33.86-.25.28.05.08v.02s.05.06.05.06l21.65,33.37-37.49,10.4ZM312.07,275.85c1.37,2.11,1.14,4.88-.57,6.73l-20.88,22.66c-.8.86-2.23.52-2.54-.62l-1.48-5.39c-.91-3.32-3.13-6.16-6.13-7.86l-45.72-25.86,7.5-35.21,34.13-9.47,35.69,55.02ZM347.6,195.32l-4.86-2.76c-3-1.7-6.57-2.14-9.89-1.22l-50.62,14.04-19.59-30.2,17.44-30.83,64.14,13.67c2.46.52,4.25,2.65,4.35,5.16l1.26,30.78c.05,1.17-1.21,1.94-2.24,1.36Z"/>
  </g>
  <path class="cls-2" d="M107.18,496.57h-13.93v64.93h55.91v-13.93h-41.98v-51ZM43.58,495.67c-2.68,0-4.91,1.49-6.7,4.47L0,561.5h15.81l27.24-46.17,11.88,20.01h-14.65l-6.34,10.81h27.42l9.11,15.36h16.7l-36.89-61.36c-1.79-2.98-4.02-4.47-6.7-4.47ZM202.03,496.57l-22.69,28.67-22.69-28.67h-18.67l33.85,41.35v23.58h13.93v-23.58l33.94-41.35h-17.68ZM294.64,561.68h13.93v-65.11h-13.93v65.11ZM345.38,496.57v25.99h-28.76v11.97h28.76v27.15h13.93v-65.11h-13.93ZM244.99,495.67c-2.68,0-4.91,1.49-6.7,4.47l-36.89,61.36h15.81l27.24-46.17,11.88,20.01h-14.65l-6.34,10.81h27.42l9.11,15.36h16.7l-36.89-61.36c-1.79-2.98-4.02-4.47-6.7-4.47Z"/>
  <path class="cls-2" d="M108.58,586.38c0-4.1-2.82-6.44-7.33-6.44h-7.6v21.32h2.23v-8.43h4.87l5.73,8.43h2.67l-6.03-8.7c3.36-.56,5.46-2.97,5.46-6.18ZM95.87,590.95v-9.15h5.2c3.27,0,5.29,1.6,5.29,4.57s-2.02,4.57-5.29,4.57h-5.2ZM76.87,591.22h9.47v-1.93h-9.47v-7.42h10.36v-1.93h-12.59v21.32h12.8v-1.93h-10.57v-8.11ZM7.01,579.93H0v21.32h2.23v-7.84h4.78c4.39,0,7.39-2.47,7.39-6.77s-3-6.71-7.39-6.71ZM6.98,591.52H2.23v-9.68h4.75c3.18,0,5.2,1.72,5.2,4.81s-2.02,4.87-5.2,4.87ZM116.87,591.22h9.47v-1.93h-9.47v-7.42h10.36v-1.93h-12.59v21.32h12.8v-1.93h-10.57v-8.11ZM62.55,598.08l-4.93-18.14h-2.38l-4.99,18.08-4.6-18.08h-2.17l5.61,21.32h2.32l5.02-18.29,4.99,18.29h2.35l5.61-21.32h-2.2l-4.63,18.14ZM354.72,579.93h-4.93l-8.02,21.32h4.54l1.63-4.57h8.28l1.6,4.57h4.84l-7.96-21.32ZM349.22,593.09l2.91-8.22,2.85,8.22h-5.76ZM29.46,579.49c-6.18,0-10.75,4.87-10.75,11.07s4.57,11.14,10.75,11.14,10.78-4.93,10.78-11.14-4.6-11.07-10.78-11.07ZM29.46,599.71c-5.02,0-8.46-4.04-8.46-9.15s3.44-9.08,8.46-9.08,8.46,3.98,8.46,9.08-3.42,9.15-8.46,9.15ZM139.71,579.93h-6.06v21.32h6.06c6.68,0,10.6-4.6,10.6-10.75s-3.77-10.57-10.6-10.57ZM139.65,599.33h-3.77v-17.46h3.77c5.46,0,8.4,3.38,8.4,8.64s-3,8.82-8.4,8.82ZM190.47,591.19l-6.5-11.26h-2.44l7.75,13.33v7.99h2.23v-7.99l7.81-13.33h-2.32l-6.53,11.26ZM284.83,583.53c3.03,0,5.41,2.11,5.91,5.17h4.78c-.74-5.47-5.14-9.21-10.75-9.21-6,0-10.69,4.84-10.69,11.07s4.69,11.14,10.69,11.14c5.61,0,10.01-3.71,10.75-9.23h-4.78c-.53,3.06-2.88,5.2-5.91,5.2-3.65,0-6.12-2.91-6.12-7.1s2.46-7.04,6.12-7.04ZM222.78,589.02l-3.65-.74c-1.54-.3-2.88-.92-2.88-2.38s1.25-2.73,3.45-2.73,3.8,1.51,3.95,3.74h4.57c-.3-4.45-3.8-7.25-8.58-7.25s-7.96,2.73-7.96,6.53c0,3.53,2.49,5.28,5.73,5.91l3.5.68c1.81.36,2.85,1.16,2.85,2.49,0,1.72-1.63,2.73-3.92,2.73-2.76,0-4.28-1.51-4.39-3.86h-4.57c.33,4.51,3.68,7.39,9.06,7.39s8.61-2.85,8.61-6.92c0-3.15-2.02-4.87-5.76-5.61ZM241.82,579.93h-7.87v21.32h4.51v-6.95h3.35c5.2,0,8.43-2.64,8.43-7.28s-3.24-7.1-8.43-7.1ZM241.79,590.51h-3.33v-6.77h3.33c2.55,0,3.98,1.22,3.98,3.33s-1.42,3.45-3.98,3.45ZM259.91,592.23h8.73v-3.89h-8.73v-4.48h9.62v-3.92h-14.14v21.32h14.34v-3.92h-9.83v-5.11ZM174.25,590.15c2.17-.8,3.5-2.61,3.5-4.72,0-3.51-2.44-5.5-6.56-5.5h-6.92v21.32h7.36c4.19,0,6.98-2.17,6.98-5.97,0-2.55-1.48-4.42-4.36-5.14ZM166.35,581.75h4.72c2.88,0,4.51,1.43,4.51,3.8s-1.63,3.8-4.51,3.8h-4.72v-7.6ZM171.52,599.45h-5.17v-8.29h5.17c3.12,0,4.96,1.51,4.96,4.07s-1.84,4.22-4.96,4.22ZM338.14,586.86c0-4.43-3.12-6.92-8.49-6.92h-8.34v21.32h4.51v-7.54h2.82l4.81,7.54h5.37l-5.49-8.22c3.03-1.01,4.81-3.3,4.81-6.18ZM329.44,590h-3.62v-6.33h3.62c2.73,0,4.19,1.07,4.19,3.18s-1.45,3.15-4.19,3.15ZM298.55,584h6.71v17.25h4.51v-17.25h6.74v-4.07h-17.97v4.07Z"/>
</svg>