<svg xmlns="http://www.w3.org/2000/svg" width="100" height="100" viewBox="0 0 100 100">
	<defs>
		<linearGradient id="gradient" gradientUnits="userSpaceOnUse" x1="0" x2="100" y1="100" y2="0">
			<stop offset="0%" stop-color="#0a00b2"/>
			<stop offset="50%" stop-color="#ff0000"/>
			<stop offset="100%" stop-color="#fffc00"/>
		</linearGradient>
		<style>
			.petal {
				opacity: 0.65;
			}
			.petals {
				fill: url(#gradient);
			}
		</style>
	</defs>
	<g id="petals" class="petals">
		<path class="petal" d="M33.6,14.8a16.938,16.938,0,0,0,3.116,11.142,11.457,11.457,0,0,0,6.858,4.3,3.033,3.033,0,0,0,2.385-.713,11.924,11.924,0,0,0,3.634-10.837c-1.257-7.54-6.19-12.43-12.4-17A32.468,32.468,0,0,0,33.6,14.8Z"/>
		<path class="petal" d="M25.117,20.232a16.938,16.938,0,0,0,5.893,9.956,11.457,11.457,0,0,0,7.738,2.381,3.033,3.033,0,0,0,2.119-1.306,11.924,11.924,0,0,0,.705-11.409C38.406,12.9,32.376,9.449,25.2,6.642A32.468,32.468,0,0,0,25.117,20.232Z"/>
		<path class="petal" d="M18.329,27.677A16.937,16.937,0,0,0,26.6,35.769a11.457,11.457,0,0,0,8.09.3,3.033,3.033,0,0,0,1.709-1.81,11.924,11.924,0,0,0-2.271-11.2c-4.859-5.9-11.576-7.67-19.237-8.523A32.466,32.466,0,0,0,18.329,27.677Z"/>
		<path class="petal" d="M13.7,36.626A16.938,16.938,0,0,0,23.781,42.3a11.457,11.457,0,0,0,7.891-1.807A3.033,3.033,0,0,0,32.854,38.3a11.924,11.924,0,0,0-5.093-10.233c-6.221-4.443-13.167-4.412-20.787-3.254A32.468,32.468,0,0,0,13.7,36.626Z"/>
		<path class="petal" d="M11.543,46.468a16.938,16.938,0,0,0,11.208,2.873,11.457,11.457,0,0,0,7.155-3.788,3.034,3.034,0,0,0,.575-2.422,11.924,11.924,0,0,0-7.568-8.566C15.753,31.884,9.052,33.711,1.99,36.8A32.468,32.468,0,0,0,11.543,46.468Z"/>
		<path class="petal" d="M12.008,56.532a16.938,16.938,0,0,0,11.569-.126,11.457,11.457,0,0,0,5.931-5.51,3.033,3.033,0,0,0-.072-2.488,11.924,11.924,0,0,0-9.527-6.315C12.3,41.356,6.3,44.855.279,49.669A32.467,32.467,0,0,0,12.008,56.532Z"/>
		<path class="petal" d="M15.062,66.134A16.938,16.938,0,0,0,26.2,63.018a11.457,11.457,0,0,0,4.3-6.858,3.033,3.033,0,0,0-.713-2.385,11.924,11.924,0,0,0-10.837-3.634c-7.54,1.257-12.43,6.19-17,12.4A32.468,32.468,0,0,0,15.062,66.134Z"/>
		<path class="petal" d="M20.5,74.618a16.938,16.938,0,0,0,9.956-5.893,11.457,11.457,0,0,0,2.381-7.738,3.033,3.033,0,0,0-1.306-2.119,11.925,11.925,0,0,0-11.409-.705c-6.958,3.166-10.4,9.2-13.212,16.376A32.466,32.466,0,0,0,20.5,74.618Z"/>
		<path class="petal" d="M27.943,81.406a16.938,16.938,0,0,0,8.092-8.269,11.457,11.457,0,0,0,.3-8.09,3.033,3.033,0,0,0-1.81-1.709,11.924,11.924,0,0,0-11.2,2.271c-5.9,4.859-7.67,11.576-8.523,19.237A32.467,32.467,0,0,0,27.943,81.406Z"/>
		<path class="petal" d="M36.891,86.035a16.938,16.938,0,0,0,5.676-10.082,11.457,11.457,0,0,0-1.807-7.891,3.033,3.033,0,0,0-2.191-1.182,11.924,11.924,0,0,0-10.233,5.094c-4.443,6.221-4.412,13.167-3.254,20.787A32.467,32.467,0,0,0,36.891,86.035Z"/>
		<path class="petal" d="M46.733,88.191a16.937,16.937,0,0,0,2.873-11.207,11.457,11.457,0,0,0-3.788-7.155,3.033,3.033,0,0,0-2.422-.575,11.924,11.924,0,0,0-8.566,7.568c-2.681,7.159-.854,13.86,2.237,20.921A32.465,32.465,0,0,0,46.733,88.191Z"/>
		<path class="petal" d="M56.8,87.726a16.937,16.937,0,0,0-.125-11.569,11.457,11.457,0,0,0-5.511-5.931,3.033,3.033,0,0,0-2.488.072,11.924,11.924,0,0,0-6.315,9.528c-0.737,7.609,2.762,13.609,7.576,19.629A32.466,32.466,0,0,0,56.8,87.726Z"/>
		<path class="petal" d="M66.4,84.672A16.938,16.938,0,0,0,63.284,73.53a11.457,11.457,0,0,0-6.858-4.3,3.033,3.033,0,0,0-2.385.713,11.924,11.924,0,0,0-3.634,10.837c1.257,7.54,6.19,12.43,12.4,17A32.468,32.468,0,0,0,66.4,84.672Z"/>
		<path class="petal" d="M74.883,79.237a16.937,16.937,0,0,0-5.893-9.956A11.456,11.456,0,0,0,61.252,66.9a3.033,3.033,0,0,0-2.119,1.306,11.924,11.924,0,0,0-.705,11.409c3.166,6.958,9.2,10.4,16.375,13.212A32.468,32.468,0,0,0,74.883,79.237Z"/>
		<path class="petal" d="M81.671,71.792A16.938,16.938,0,0,0,73.4,63.7a11.457,11.457,0,0,0-8.09-.3,3.033,3.033,0,0,0-1.708,1.81,11.924,11.924,0,0,0,2.271,11.2c4.859,5.9,11.576,7.67,19.237,8.523A32.466,32.466,0,0,0,81.671,71.792Z"/>
		<path class="petal" d="M86.3,62.843a16.938,16.938,0,0,0-10.082-5.676,11.457,11.457,0,0,0-7.891,1.807,3.033,3.033,0,0,0-1.182,2.191A11.924,11.924,0,0,0,72.239,71.4c6.221,4.443,13.167,4.412,20.787,3.254A32.467,32.467,0,0,0,86.3,62.843Z"/>
		<path class="petal" d="M88.457,53a16.938,16.938,0,0,0-11.207-2.873,11.457,11.457,0,0,0-7.155,3.788,3.033,3.033,0,0,0-.574,2.422A11.925,11.925,0,0,0,77.088,64.9c7.158,2.681,13.86.854,20.921-2.237A32.467,32.467,0,0,0,88.457,53Z"/>
		<path class="petal" d="M87.992,42.936a16.938,16.938,0,0,0-11.569.126,11.457,11.457,0,0,0-5.931,5.511,3.033,3.033,0,0,0,.072,2.488,11.924,11.924,0,0,0,9.527,6.315C87.7,58.113,93.7,54.614,99.721,49.8A32.468,32.468,0,0,0,87.992,42.936Z"/>
		<path class="petal" d="M84.938,33.335A16.938,16.938,0,0,0,73.8,36.451a11.457,11.457,0,0,0-4.3,6.858,3.033,3.033,0,0,0,.714,2.385,11.924,11.924,0,0,0,10.837,3.634c7.54-1.257,12.43-6.19,17-12.4A32.466,32.466,0,0,0,84.938,33.335Z"/>
		<path class="petal" d="M79.5,24.851a16.938,16.938,0,0,0-9.956,5.893,11.457,11.457,0,0,0-2.381,7.738A3.033,3.033,0,0,0,68.472,40.6a11.924,11.924,0,0,0,11.409.705c6.958-3.166,10.4-9.2,13.212-16.375A32.468,32.468,0,0,0,79.5,24.851Z"/>
		<path class="petal" d="M72.057,18.063a16.938,16.938,0,0,0-8.092,8.269,11.457,11.457,0,0,0-.3,8.09,3.033,3.033,0,0,0,1.81,1.709,11.924,11.924,0,0,0,11.2-2.271c5.9-4.859,7.67-11.576,8.523-19.237A32.467,32.467,0,0,0,72.057,18.063Z"/>
		<path class="petal" d="M63.109,13.434a16.937,16.937,0,0,0-5.676,10.082,11.457,11.457,0,0,0,1.807,7.891,3.033,3.033,0,0,0,2.191,1.182A11.924,11.924,0,0,0,71.664,27.5c4.443-6.221,4.412-13.167,3.254-20.787A32.466,32.466,0,0,0,63.109,13.434Z"/>
		<path class="petal" d="M53.267,11.278a16.937,16.937,0,0,0-2.873,11.207,11.456,11.456,0,0,0,3.788,7.155,3.033,3.033,0,0,0,2.422.575,11.924,11.924,0,0,0,8.566-7.568c2.681-7.159.854-13.86-2.237-20.921A32.466,32.466,0,0,0,53.267,11.278Z"/>
		<path class="petal" d="M43.2,11.743a16.938,16.938,0,0,0,.126,11.569,11.457,11.457,0,0,0,5.511,5.931,3.033,3.033,0,0,0,2.488-.072,11.924,11.924,0,0,0,6.315-9.528C58.379,12.034,54.88,6.034,50.066.014A32.468,32.468,0,0,0,43.2,11.743Z"/>
	</g>
</svg>