<svg fill="none" height="50" viewBox="0 0 230 50" width="230" xmlns="http://www.w3.org/2000/svg"><g fill="black"><path d="m16.6093 42.464h8.5028v-.496h-2.728v-12.3646h.0709c.0708.2362.2007.5551.3897.9566.1889.3779.4606.7558.8148 1.1337.3543.3543.8031.6613 1.3463.9211.5669.2835 1.2518.4252 2.0549.4252 1.0392 0 2.0194-.2244 2.9406-.6732.9447-.4487 1.7714-1.051 2.48-1.8068.7085-.7558 1.2636-1.6179 1.6651-2.5863.4251-.992.6377-2.0312.6377-3.1177 0-1.0629-.2008-2.0785-.6023-3.0469-.4015-.9683-.9447-1.8068-1.6297-2.5154-.6849-.7322-1.4762-1.3109-2.3737-1.736-.8975-.4488-1.8541-.6731-2.8697-.6731-1.2991 0-2.3619.3306-3.1886.992-.803.6377-1.3817 1.4525-1.736 2.4445h-.0708v-2.976h-5.704v.496h2.728v24.1269h-2.728zm14.632-18.0332c0 1.2282-.0355 2.3501-.1063 3.3658-.0709.992-.248 1.8422-.5315 2.5508-.2834.7086-.7085 1.2518-1.2754 1.6297-.5668.3779-1.3345.5669-2.3028.5669-.992 0-1.7951-.2126-2.4092-.6377-.5905-.4252-1.051-.9684-1.3817-1.6297-.3307-.685-.555-1.4408-.6731-2.2675-.1181-.8266-.1772-1.6297-.1772-2.4091 0-.9212.0118-1.7124.0354-2.3737.0473-.685.1181-1.2873.2126-1.8069s.2126-.9684.3543-1.3463c.1653-.3779.3779-.7322.6377-1.0628.3543-.4724.8149-.8621 1.3817-1.1692.5669-.307 1.2873-.4605 2.1612-.4605.8266 0 1.4998.1653 2.0194.496.5432.3306.9566.803 1.24 1.4171.307.6141.5196 1.3581.6377 2.232.1181.8503.1772 1.8187.1772 2.9051z"/><path d="m38.8504 32.544h8.5028v-.496h-2.728v-25.048h-5.7748v.496h2.728v24.552h-2.728z"/><path d="m66.233 31.7646c-.2598.1889-.5314.3306-.8148.4251-.2835.0945-.5551.1417-.8149.1417-.4015 0-.7086-.1181-.9211-.3543-.2126-.2362-.3189-.6967-.3189-1.3817v-8.8217c0-.6377-.0945-1.24-.2834-1.8069-.189-.5904-.5078-1.11-.9566-1.5588-.4488-.4724-1.0392-.8385-1.7714-1.0983-.7322-.2834-1.6415-.4251-2.728-.4251-.8975 0-1.7006.1062-2.4092.3188-.6849.2126-1.2636.5078-1.736.8857-.4487.3543-.7912.7677-1.0274 1.24-.2362.4724-.3543.9684-.3543 1.488 0 .4488.0945.8149.2835 1.0983.1889.2834.6731.4252 1.4525.4252.4488 0 .7913-.1063 1.0275-.3189.2362-.2362.3542-.5196.3542-.8503 0-.1889-.0354-.4724-.1062-.8503-.0709-.4015-.1063-.803-.1063-1.2045 0-.6141.248-1.0511.744-1.3109.5196-.2834 1.1691-.4251 1.9485-.4251.5905 0 1.0629.0826 1.4172.248.3543.1653.6259.4133.8148.744.189.307.3189.6849.3898 1.1337.0708.4487.1062.9565.1062 1.5234 0 .7086-.059 1.2754-.1771 1.7006-.0945.4015-.2834.744-.5669 1.0274-.2834.2598-.6849.4842-1.2045.6731-.496.189-1.1337.4134-1.9132.6732-.6613.2126-1.3226.4133-1.984.6023-.6377.1889-1.2282.4369-1.7714.744-.5196.2834-.9448.6731-1.2754 1.1691-.3307.496-.496 1.1573-.496 1.984 0 .3543.0472.744.1417 1.1692.1181.4015.3425.7676.6731 1.0982.3307.3307.7913.6023 1.3817.8149.5905.2362 1.3818.3543 2.3738.3543.8739 0 1.5942-.1063 2.1611-.3189.5669-.1889 1.0156-.4251 1.3463-.7085.3543-.3071.6141-.6141.7794-.9212.1653-.3307.2953-.6023.3897-.8148h.0709c.1889.8739.5314 1.5588 1.0274 2.0548.5196.4724 1.3463.7086 2.48.7086.6141 0 1.1337-.0945 1.5589-.2834.4251-.1654.7912-.3661 1.0983-.6023zm-5.9165-4.3578c0 .4724-.0473 1.0039-.1418 1.5943-.0708.5669-.2361 1.0983-.496 1.5943-.2361.496-.6022.9093-1.0982 1.24-.4724.3307-1.0983.496-1.8778.496-.5432 0-.992-.0945-1.3462-.2834-.3307-.189-.5905-.4252-.7795-.7086-.1889-.307-.3188-.6495-.3897-1.0274-.0708-.3779-.1063-.744-.1063-1.0983 0-.8267.2008-1.5116.6023-2.0549.4015-.5668.9802-1.0038 1.736-1.3108l2.6572-1.0629c.7321-.307 1.1219-.6141 1.1691-.9211h.0709z"/><path d="m83.1482 28.5406c-.0945.2834-.2362.6495-.4251 1.0982-.189.4488-.4842.8976-.8857 1.3463-.3779.4252-.9094.7913-1.5943 1.0983-.6614.3071-1.5116.4606-2.5509.4606-.9684 0-1.7596-.189-2.3737-.5669-.5905-.4015-1.0628-.9329-1.4171-1.5943-.3307-.6849-.5669-1.4762-.7086-2.3737-.1181-.8975-.1771-1.8541-.1771-2.8697 0-1.795.1417-3.2122.4251-4.2514.307-1.0392.685-1.8187 1.1337-2.3383.4724-.5196.9802-.8385 1.5234-.9566.5669-.1417 1.1101-.2125 1.6298-.2125.7085 0 1.3344.1535 1.8777.4605.5432.2835.8148.6968.8148 1.24 0 .3071-.0826.6968-.248 1.1692-.1653.4724-.248.8739-.248 1.2045 0 .4252.1772.7322.5315.9212.3779.1653.7676.248 1.1691.248.5905 0 1.0392-.1535 1.3463-.4606.3306-.3306.496-.744.496-1.24 0-.7322-.189-1.3463-.5669-1.8423-.3543-.5196-.8148-.9329-1.3817-1.24-.5432-.3306-1.1573-.5668-1.8423-.7085-.6613-.1654-1.3108-.248-1.9485-.248-1.1338 0-2.2084.2125-3.224.6377-.992.4015-1.8659.9684-2.6218 1.7005-.7321.7322-1.3226 1.5943-1.7714 2.5863-.4251.992-.6377 2.0667-.6377 3.224 0 1.488.248 2.7398.744 3.7555.5196 1.0156 1.181 1.8422 1.984 2.48.8031.614 1.6888 1.0628 2.6571 1.3462.9684.2835 1.9014.4252 2.7989.4252 1.1809 0 2.1375-.1772 2.8697-.5314.7558-.378 1.3463-.8031 1.7714-1.2755.4488-.496.7677-.9802.9566-1.4525.2126-.496.3543-.874.4252-1.1338z"/><path d="m102.26 23.7577c0-1.299-.224-2.3855-.673-3.2594-.425-.8739-.969-1.5707-1.6299-2.0903-.6377-.5432-1.3345-.933-2.0903-1.1692-.7558-.2361-1.4643-.3542-2.1257-.3542-1.1101 0-2.1493.2362-3.1177.7085-.9684.4488-1.8187 1.0511-2.5508 1.8069-.7086.7558-1.2755 1.6297-1.7006 2.6217-.4015.9684-.6023 1.9722-.6023 3.0114 0 1.2046.2008 2.3029.6023 3.2949.4015.9684.9684 1.8068 1.7006 2.5154.7321.7086 1.5942 1.2518 2.5862 1.6297 1.0157.3779 2.1139.5669 3.2949.5669 1.1809 0 2.1375-.1772 2.8697-.5314.7558-.378 1.3466-.8031 1.7716-1.2755.449-.496.767-.9802.956-1.4525.213-.496.355-.874.426-1.1338l-.532-.1062c-.094.2834-.236.6495-.425 1.0982-.189.4488-.484.8976-.886 1.3463-.3776.4252-.9091.7913-1.594 1.0983-.6614.3071-1.5116.4606-2.5509.4606-1.0392 0-1.8777-.2244-2.5154-.6732-.6141-.4487-1.0865-1.0156-1.4171-1.7005-.3071-.685-.5079-1.4526-.6023-2.3029-.0945-.8503-.1417-1.6651-.1417-2.4446 0-.3779 0-.6849 0-.9211.0236-.2598.0354-.5078.0354-.744zm-10.8766-.496c.0472-.7794.1417-1.5234.2834-2.232.1654-.7086.4016-1.3345.7086-1.8777.3071-.5432.7204-.9684 1.24-1.2754.5196-.3307 1.181-.496 1.984-.496.4488 0 .8621.0708 1.24.2125.4015.1181.7322.3307.992.6377.2834.3071.496.7204.6377 1.24.1654.5197.248 1.181.248 1.984v.8858c0 .2834-.0236.5904-.0708.9211z"/><path d="m106.015 32.544h8.503v-.496h-2.728v-8.0069c0-.9447.142-1.8186.425-2.6217.307-.803.721-1.4998 1.24-2.0903.52-.5904 1.122-1.051 1.807-1.3817.685-.3306 1.406-.496 2.161-.496.922 0 1.595.2953 2.02.8857.449.5905.673 1.3463.673 2.2675v11.4434h-2.728v.496h8.503v-.496h-2.728v-10.3452c0-1.6533-.496-2.8579-1.488-3.6137-.969-.7558-2.232-1.1337-3.791-1.1337-.968 0-1.807.1535-2.515.4606-.685.2834-1.276.6377-1.772 1.0628-.472.4016-.85.8385-1.134 1.3109-.283.4488-.484.8267-.602 1.1337h-.071v-13.9234h-5.775v.496h2.728v24.552h-2.728z"/><path d="m129.622 24.9623c0 1.1101.237 2.1611.709 3.1531.472.9684 1.086 1.8187 1.842 2.5509.78.7322 1.665 1.3108 2.657 1.736.992.4251 2.008.6377 3.047.6377 1.04 0 2.055-.2126 3.047-.6377.992-.4252 1.866-1.0038 2.622-1.736.779-.7322 1.405-1.5825 1.878-2.5509.472-.992.708-2.043.708-3.1531 0-1.1574-.26-2.232-.779-3.224-.496-.992-1.146-1.8423-1.949-2.5509-.779-.7322-1.665-1.299-2.657-1.7006-.968-.4015-1.925-.6022-2.87-.6022-.944 0-1.913.2007-2.905.6022-.968.4016-1.854.9684-2.657 1.7006-.779.7086-1.429 1.5589-1.949 2.5509-.496.992-.744 2.0666-.744 3.224zm3.543 0c0-1.4172.095-2.5981.284-3.5429.189-.9684.472-1.7478.85-2.3383.402-.6141.898-1.051 1.488-1.3108s1.287-.3897 2.09-.3897 1.5.1299 2.091.3897c.59.2598 1.074.6967 1.452 1.3108.402.5905.697 1.3699.886 2.3383.189.9448.283 2.1257.283 3.5429 0 1.6769-.13 3.0114-.389 4.0034-.26.992-.603 1.7596-1.028 2.3029-.425.5196-.921.862-1.488 1.0274-.567.1653-1.169.248-1.807.248-.637 0-1.24-.0827-1.807-.248-.566-.1654-1.062-.5078-1.488-1.0274-.425-.5433-.767-1.3109-1.027-2.3029s-.39-2.3265-.39-4.0034z"/><path d="m149.947 32.544h8.502v-.496h-2.728v-25.048h-5.774v.496h2.728v24.552h-2.728z"/><path d="m172.192 7.496h2.728v12.6834h-.071c-.33-.9211-.897-1.7006-1.7-2.3383s-1.854-.9565-3.154-.9565c-1.015 0-1.972.2243-2.869.6731-.898.4251-1.689 1.0038-2.374 1.736-.685.7086-1.228 1.5471-1.63 2.5154-.401.9684-.602 1.984-.602 3.0469 0 1.0865.201 2.1257.602 3.1177.425.9684.992 1.8305 1.701 2.5863.708.7558 1.523 1.3581 2.444 1.8068.945.4488 1.937.6732 2.976.6732.804 0 1.477-.1417 2.02-.4252.567-.2598 1.027-.5786 1.382-.9565.378-.3779.661-.7677.85-1.1692s.331-.744.425-1.0274h.071v3.0823h5.704v-.496h-2.728v-25.048h-5.775zm-6.129 16.9348c0-1.0864.059-2.0548.177-2.9051.118-.8739.319-1.6179.602-2.232.307-.6141.721-1.0865 1.24-1.4171.544-.3307 1.229-.496 2.055-.496.874 0 1.594.1535 2.161.4605.567.3071 1.028.6968 1.382 1.1692.236.3306.437.6849.602 1.0628.166.3779.296.8267.39 1.3463.095.5196.154 1.1219.177 1.8069.047.6613.071 1.4525.071 2.3737 0 .7794-.059 1.5825-.177 2.4091-.118.8267-.343 1.5825-.673 2.2675-.331.6613-.803 1.2045-1.417 1.6297-.591.4251-1.382.6377-2.374.6377-.968 0-1.736-.189-2.303-.5669s-.992-.9211-1.275-1.6297c-.284-.7086-.461-1.5588-.532-2.5508-.071-1.0157-.106-2.1376-.106-3.3658z"/><path d="m199.003 23.7577c0-1.299-.224-2.3855-.673-3.2594-.425-.8739-.968-1.5707-1.629-2.0903-.638-.5432-1.335-.933-2.091-1.1692-.756-.2361-1.464-.3542-2.125-.3542-1.111 0-2.15.2362-3.118.7085-.969.4488-1.819 1.0511-2.551 1.8069-.709.7558-1.275 1.6297-1.701 2.6217-.401.9684-.602 1.9722-.602 3.0114 0 1.2046.201 2.3029.602 3.2949.402.9684.969 1.8068 1.701 2.5154s1.594 1.2518 2.586 1.6297c1.016.3779 2.114.5669 3.295.5669s2.138-.1772 2.87-.5314c.756-.378 1.346-.8031 1.771-1.2755.449-.496.768-.9802.957-1.4525.212-.496.354-.874.425-1.1338l-.531-.1062c-.095.2834-.237.6495-.426 1.0982-.189.4488-.484.8976-.885 1.3463-.378.4252-.91.7913-1.595 1.0983-.661.3071-1.511.4606-2.55.4606-1.04 0-1.878-.2244-2.516-.6732-.614-.4487-1.086-1.0156-1.417-1.7005-.307-.685-.508-1.4526-.602-2.3029-.095-.8503-.142-1.6651-.142-2.4446 0-.3779 0-.6849 0-.9211.024-.2598.035-.5078.035-.744zm-10.876-.496c.047-.7794.142-1.5234.283-2.232.166-.7086.402-1.3345.709-1.8777s.72-.9684 1.24-1.2754c.519-.3307 1.181-.496 1.984-.496.449 0 .862.0708 1.24.2125.401.1181.732.3307.992.6377.283.3071.496.7204.638 1.24.165.5197.248 1.181.248 1.984v.8858c0 .2834-.024.5904-.071.9211z"/><path d="m202.83 32.544h8.857v-.496h-3.082v-8.1132c0-.992.118-1.8659.354-2.6217.26-.7794.567-1.4407.921-1.984.378-.5432.779-.9565 1.205-1.24.425-.2834.826-.4251 1.204-.4251.827 0 1.24.3779 1.24 1.1337 0 .3071-.023.5432-.071.7086-.047.1653-.106.3188-.177.4605-.047.1181-.094.248-.142.3898-.047.1181-.07.2834-.07.496 0 .6613.519.992 1.558.992.473 0 .886-.1299 1.24-.3898.355-.2598.532-.7794.532-1.5588 0-.3543-.059-.7086-.177-1.0629s-.307-.6613-.567-.9211c-.26-.2834-.591-.5078-.992-.6732-.402-.1889-.874-.2834-1.417-.2834-.756 0-1.406.1417-1.949.4252-.519.2834-.968.6377-1.346 1.0628-.378.4015-.673.8267-.886 1.2754-.212.4488-.366.8503-.46 1.2046h-.071v-3.5783h-5.704v.496h2.728v14.2069h-2.728z"/><g clip-rule="evenodd" fill-rule="evenodd"><path d="m222.356 8.40477h-3.755v-.64371h4.399v34.11674h-4.399v-.6437h3.755z"/><path d="m8.64371 8.40477h3.75499v-.64371h-4.3987v34.11674h4.3987v-.6437h-3.75499z"/></g></g></svg>