<?xml version="1.0" encoding="UTF-8"?>
<svg id="Layer_1" data-name="Layer 1" xmlns="http://www.w3.org/2000/svg" xmlns:xlink="http://www.w3.org/1999/xlink" viewBox="0 0 817.72 305.12">
  <defs>
    <style>
      .cls-1 {
        fill: url(#linear-gradient);
      }

      .cls-1, .cls-2 {
        stroke-width: 0px;
      }

      .cls-2 {
        fill: #000;
      }
    </style>
    <linearGradient id="linear-gradient" x1="429.28" y1="-15.93" x2="804.35" y2="251.98" gradientUnits="userSpaceOnUse">
      <stop offset=".2" stop-color="#03f4d4"/>
      <stop offset="1" stop-color="#6b43fc"/>
    </linearGradient>
  </defs>
  <g>
    <path class="cls-2" d="M54.02,166.97c-3.32,0-6.09,1.85-8.3,5.54L0,248.56h19.59l33.76-57.23,14.72,24.79h-18.15l-7.86,13.39h33.98l11.29,19.04h20.7l-45.72-76.05c-2.21-3.69-4.98-5.54-8.3-5.54Z"/>
    <polygon class="cls-2" points="132.83 168.08 115.56 168.08 115.56 248.56 184.86 248.56 184.86 231.29 132.83 231.29 132.83 168.08"/>
    <polygon class="cls-2" points="250.39 168.08 222.27 203.61 194.16 168.08 171.02 168.08 212.97 219.33 212.97 248.56 230.24 248.56 230.24 219.33 272.31 168.08 250.39 168.08"/>
    <path class="cls-2" d="M303.63,166.97c-3.32,0-6.09,1.85-8.3,5.54l-45.72,76.05h19.59l33.76-57.23,14.72,24.79h-18.15l-7.86,13.39h33.98l11.29,19.04h20.7l-45.72-76.05c-2.21-3.69-4.98-5.54-8.3-5.54Z"/>
    <polygon class="cls-2" points="428.05 200.29 392.41 200.29 392.41 215.13 428.05 215.13 428.05 248.78 445.32 248.78 445.32 168.08 428.05 168.08 428.05 200.29"/>
    <rect class="cls-2" x="365.18" y="168.08" width="17.27" height="80.7"/>
    <path class="cls-2" d="M287.88,127.97c12.51,0,20.26-7.86,20.26-20.81,0-5.42-1.77-10.18-5.42-14.17-3.99-4.43-9.19-6.64-15.72-6.64-12.73,0-20.26,7.97-20.26,20.81,0,5.54,1.88,10.3,5.54,14.28,3.87,4.32,9.08,6.53,15.61,6.53ZM281.46,98.85c1.66-1.88,3.65-2.77,6.09-2.77s4.32.89,6.09,2.77c1.88,2.1,2.88,4.98,2.88,8.41,0,7.08-3.65,11.18-8.52,11.18-2.32,0-4.43-.89-6.09-2.77-1.88-2.1-2.88-4.98-2.88-8.41s.77-6.31,2.44-8.41Z"/>
    <rect class="cls-2" x="374.11" y="133.61" width="10.63" height="11.18"/>
    <rect class="cls-2" x="358.06" y="133.61" width="10.74" height="11.18"/>
    <path class="cls-2" d="M398.35,127.97h9.63c9.63,0,14.95-5.54,14.95-14.39,0-7.08-.11-16.61-.22-28.56-.11-14.06-.11-23.58-.22-28.67h-11.62c0,5.42.11,14.39.22,26.68.11,10.85.22,19.71.22,26.57,0,4.98-3.21,7.64-7.53,7.64h-14.28c-2.21,0-4.21-1-6.09-3.1-2.32-2.32-3.43-5.42-3.43-9.3-.22-7.42-.33-13.17-.33-17.27h-11.62l.22,21.92c0,2.55-1.11,4.54-3.43,5.98-1.77,1.22-3.65,1.77-5.76,1.77h-19.26c-3.1,0-5.09-2.99-5.09-6.97l-.44-53.91h-11.73l.33,58.56c0,4.21,1.33,7.53,3.76,9.85,2.1,2.1,4.76,3.21,7.86,3.21h29c6.09-.11,11.84-3.54,13.73-8.97.55,1.66,1.55,3.21,2.77,4.76,2.32,2.77,5.2,4.21,8.52,4.21h9.85Z"/>
    <polygon class="cls-2" points="449.49 127.97 448.94 56.34 437.31 56.34 437.87 127.97 449.49 127.97"/>
  </g>
  <path class="cls-1" d="M815.89,139.3c-.3-7.36-5.54-13.58-12.75-15.11l-51.42-10.96,19.19-33.92c.73-1.28,1.94-2.23,3.36-2.62l19.88-5.47c1.94-.53,2.54-2.99,1.06-4.36l-32.84-30.25c-5.42-4.99-13.52-5.68-19.7-1.67l-44.11,28.62-10.42-37.56c-.4-1.42-.21-2.95.52-4.23l10.19-17.93c.99-1.75-.32-3.91-2.33-3.83l-44.61,1.83c-7.36.3-13.58,5.54-15.11,12.75l-10.96,51.43-33.92-19.19c-1.28-.73-2.23-1.94-2.62-3.36l-5.47-19.88c-.53-1.94-2.99-2.54-4.36-1.06l-30.25,32.84c-4.99,5.42-5.68,13.52-1.67,19.7l28.62,44.11-37.56,10.42c-1.42.4-2.95.21-4.23-.52l-17.93-10.19c-1.75-.99-3.91.32-3.83,2.33l1.83,44.61c.3,7.36,5.54,13.58,12.75,15.11l51.43,10.96-19.19,33.92c-.73,1.28-1.94,2.23-3.36,2.62l-19.88,5.47c-1.94.53-2.54,2.99-1.06,4.36l32.84,30.25c5.42,4.99,13.52,5.68,19.7,1.67l44.11-28.62,10.42,37.56c.4,1.42.21,2.95-.52,4.23l-10.19,17.93c-.99,1.75.32,3.91,2.33,3.83l44.61-1.83c7.36-.3,13.58-5.54,15.11-12.75l10.96-51.43,33.92,19.19c1.28.73,2.23,1.94,2.62,3.36l5.47,19.88c.53,1.94,2.99,2.54,4.36,1.06l30.25-32.84c4.99-5.42,5.68-13.52,1.67-19.7l-28.62-44.11,37.56-10.42c1.42-.4,2.95-.21,4.23.52l17.93,10.19c1.75.99,3.91-.32,3.83-2.33l-1.83-44.61ZM748.88,44.5c1.81-1.17,4.18-.97,5.76.49l19.41,17.88c.74.68.44,1.91-.53,2.18l-4.62,1.27c-2.85.78-5.28,2.68-6.73,5.25l-22.15,39.16-30.15-6.42-8.11-29.24,47.12-30.57ZM647.95,16.96c.45-2.11,2.27-3.64,4.42-3.73l26.37-1.08c1-.04,1.66,1.04,1.17,1.92l-2.37,4.16c-1.46,2.57-1.84,5.63-1.05,8.47l12.03,43.36-25.86,16.78-26.41-14.94,11.71-54.94ZM557.11,68.85c-1.17-1.81-.97-4.18.49-5.76l17.88-19.41c.68-.74,1.91-.44,2.18.53l1.27,4.62c.78,2.85,2.68,5.28,5.25,6.73l39.16,22.15-6.42,30.15-29.24,8.11-30.57-47.12ZM529.56,169.77c-2.11-.45-3.64-2.27-3.73-4.42l-1.08-26.37c-.04-1,1.04-1.66,1.92-1.17l4.16,2.37c2.57,1.46,5.63,1.84,8.47,1.05l43.36-12.03,16.78,25.86-14.94,26.41-54.94-11.71ZM581.45,260.61c-1.81,1.17-4.18.97-5.76-.49l-19.41-17.88c-.74-.68-.44-1.91.53-2.18l4.62-1.27c2.85-.78,5.28-2.68,6.73-5.25l22.15-39.17,30.15,6.43,8.11,29.24-47.13,30.57ZM682.37,288.16c-.45,2.11-2.27,3.64-4.42,3.73l-26.37,1.08c-1,.04-1.66-1.04-1.17-1.92l2.37-4.16c1.46-2.57,1.84-5.63,1.05-8.47l-12.03-43.36,25.86-16.78,26.41,14.94-11.71,54.94ZM704.03,188.02h-.32s-.02.09-.02.09h-.02s0,.09,0,.09l-7.1,33.32-29.01-16.41-.23-.22-.07.04h-.02s-.05.05-.05.05l-28.58,18.54-8.91-32.11v-.32s-.09-.02-.09-.02v-.02s-.08,0-.08,0l-33.32-7.1,16.41-29,.22-.24-.04-.07v-.02s-.04-.05-.04-.05l-18.55-28.59,32.11-8.91h.32s.02-.09.02-.09h.02s0-.09,0-.09l7.1-33.32,29,16.41.24.22.07-.04h.02s.05-.05.05-.05l28.59-18.54,8.91,32.11v.32s.09.02.09.02v.02s.08,0,.08,0l33.32,7.1-16.41,29-.22.24.04.07v.02s.04.05.04.05l18.54,28.59-32.11,8.91ZM773.22,236.27c1.17,1.81.97,4.18-.49,5.76l-17.88,19.41c-.68.74-1.91.44-2.18-.53l-1.27-4.62c-.78-2.85-2.68-5.28-5.25-6.73l-39.16-22.15,6.43-30.15,29.24-8.11,30.57,47.12ZM803.65,167.3l-4.16-2.37c-2.57-1.46-5.63-1.84-8.47-1.05l-43.36,12.03-16.78-25.86,14.94-26.41,54.94,11.71c2.11.45,3.64,2.27,3.73,4.42l1.08,26.37c.04,1-1.04,1.66-1.92,1.17Z"/>
</svg>