<svg enable-background="new 0 0 1024 1024" viewBox="0 0 1024 1024" xmlns="http://www.w3.org/2000/svg"><circle cx="512" cy="512" fill="#006296" r="512"/><path d="m235 511.5 35.9 52.3h-17.3l-26.2-40-26.3 40h-17.3l35.9-51.7-32.2-47.2h17.5l22.4 36m4.2-6.5 18.3-29.5h17.3l-27.9 40.3m49.9.6c0-2.2 0-4.3.2-6.2v-.7c.6-8.8 2.2-14.7 5-17.7 3.5-3.8 11.1-5.6 22.8-5.6s19.3 1.6 22.8 4.8c3.3 3 5 9.2 5.2 18.6h14.6c-.9-13-3.6-21.9-8.1-26.6-5.7-5.9-17.6-8.8-35.8-8.8-16.7 0-27.9 3.4-33.6 10.1-5.7 6.8-8.6 20-8.5 39.7 0 21.3 2.8 35.4 8.5 42 5.7 6.7 17.6 10 35.8 10 15.6 0 26.6-2.1 32.8-6.2s9.4-11.3 9.4-21.6l-.1-3.6h-14.8v3.1c0 6.8-1.7 11.1-5.2 13.2-3.5 2-11.1 3-22.7 2.9-12.3 0-20.1-2.1-23.4-6.4s-5-14.2-5-29.8h71.2v-7.8c0-1.2 0-2.4 0-3.5zm.2-7v.7c0-.2 0-.4 0-.7zm132.2-23.3c9.2 0 15.5 1.5 18.7 4.4s4.9 8.6 4.9 17.1v1.8h14.6c0-13.7-2.6-23-7.5-27.9s-14.6-7.4-28.7-7.4c-17.5 0-28.5 5.1-32.9 15.2l-.4-.3.4-13.4h-14v33.9h14.8c1.8-15.7 11.8-23.4 30.1-23.4zm-45 30.3h14.5v58h-14.5zm68.6 0h14.5v58h-14.5zm50.9-20.4v-49.3h70.6v-13.4h-86.6v76.2h82.5c.4-4.5 1.1-9 2.1-13.4zm-15.9 20.4h15.9v58h-15.9zm165.8 8.6c0 17.6-1.5 28.4-4.6 32.6s-11.1 6.3-24 6.3c-12.8 0-20.8-2.1-23.8-6.3-3.1-4.2-4.6-15-4.6-32.6 0-3.1 0-6 .1-8.6h-15.1c-.1 2.7-.2 5.6-.2 8.6 0 21.2 2.7 35 8.2 41.4 5.4 6.3 17.3 9.5 35.6 9.5s30.1-3.2 35.6-9.5 8.2-20.1 8.2-41.4c0-3 0-5.9-.2-8.6h-15.2zm-52.3-32.7c3.1-4.2 11-6.3 23.8-6.3s20.8 2.1 24 6.3c2 2.8 3.4 8.5 4 17.1h15.1c-1.1-12.6-3.6-21.2-7.6-25.9-5.4-6.3-17.3-9.5-35.6-9.5s-30.1 3.2-35.5 9.5c-4 4.6-6.5 13.3-7.6 25.9h15.1c.9-8.6 2.2-14.3 4.3-17.1zm81.2 24.1h14.5v58h-14.5zm38.7-31.2c11 0 16.5 5.1 16.5 15.2 0 .9-.1 2.7-.3 5.3l-.4 3.7h14.3l.2-8c0-18.8-9.1-28.1-27.3-28.1-13.2 0-22.6 4.7-28.3 14l-.3-.3 1.4-11.4h-14.5v34h14.7c1.5-16.3 9.4-24.4 24-24.4zm118.4-1.6c-5.4-6.3-17.3-9.5-35.6-9.5s-30.1 3.2-35.5 9.5c-4 4.6-6.5 13.3-7.6 25.9h15.1c.7-8.6 2-14.3 4-17.1 3.1-4.2 11-6.3 23.9-6.3 12.8 0 20.8 2.1 24 6.3 3.1 4.2 4.6 15.1 4.6 32.6 0 17.6-1.5 28.5-4.6 32.6-3.1 4.2-11.1 6.3-24 6.3s-20.9-2.1-23.9-6.3c-3.1-4.2-4.6-15-4.6-32.6 0-3.1 0-6 .1-8.6h-15.2c-.1 2.7-.2 5.6-.2 8.6 0 21.2 2.7 35 8.2 41.4 5.4 6.3 17.3 9.5 35.5 9.5 18.3 0 30.1-3.2 35.6-9.5s8.2-20.1 8.2-41.4c.1-21.3-2.6-35-8-41.4z" fill="#fff"/></svg>