<svg width="98" height="102" viewBox="0 0 98 102" fill="none" xmlns="http://www.w3.org/2000/svg">
<path d="M51.0826 60.56V85.2955C51.0826 86.5139 50.1057 87.5 48.9017 87.5H2.18085C0.97687 87.5 0 86.5139 0 85.2955V16.7045C0 15.4876 0.97687 14.5 2.18085 14.5H34.9475C35.5255 14.5 36.0801 14.7322 36.4907 15.1466L50.4435 29.2523C50.8526 29.6652 51.0811 30.2266 51.0811 30.8115V60.56H51.0826Z" fill="#41A5EE"/>
<path d="M51.0811 30.8115V33.0145H34.9475C33.7435 33.0145 32.7666 32.0269 32.7666 30.8101V14.5H34.9475C35.5255 14.5 36.0801 14.7322 36.4907 15.1466L50.4435 29.2523C50.8526 29.6652 51.0811 30.2266 51.0811 30.8115Z" fill="#C0CCDD"/>
<path d="M20.4633 35.4218H6.59642C5.39244 35.4218 4.41557 34.4342 4.41557 33.2173C4.41557 32.0005 5.39244 31.0129 6.59642 31.0129H20.4633C21.6673 31.0129 22.6442 32.0005 22.6442 33.2173C22.6442 34.4342 21.6673 35.4218 20.4633 35.4218Z" fill="white"/>
<path d="M27.7425 48.2327H6.59642C5.39244 48.2327 4.41557 47.2451 4.41557 46.0282C4.41557 44.8113 5.39244 43.8237 6.59642 43.8237H27.7425C28.9465 43.8237 29.9234 44.8113 29.9234 46.0282C29.9234 47.2451 28.9465 48.2327 27.7425 48.2327Z" fill="white"/>
<path d="M17.5516 60.4057H6.59642C5.39244 60.4057 4.41557 59.4181 4.41557 58.2012C4.41557 56.9844 5.39244 55.9968 6.59642 55.9968H17.5516C18.7556 55.9968 19.7325 56.9844 19.7325 58.2012C19.7325 59.4181 18.7556 60.4057 17.5516 60.4057Z" fill="white"/>
<path d="M26.2867 71.575H6.59642C5.39244 71.575 4.41557 70.5874 4.41557 69.3705C4.41557 68.1536 5.39244 67.166 6.59642 67.166H26.2867C27.4907 67.166 28.4675 68.1536 28.4675 69.3705C28.4675 70.5874 27.4907 71.575 26.2867 71.575Z" fill="white"/>
<path d="M72.3772 70.5462C72.3772 71.1958 71.856 71.7219 71.2125 71.7219H68.8832C68.2397 71.7219 67.7185 71.1958 67.7185 70.5462V52.9105H66.5538C65.9103 52.9105 65.2436 52.3844 65.2436 51.7348C65.2436 51.0852 65.9103 50.5591 66.5538 50.5591H67.7185V32.9234C67.7185 32.2738 68.2397 31.7477 68.8832 31.7477H71.2125C71.856 31.7477 72.3772 32.2738 72.3772 32.9234C72.3772 33.573 71.856 34.0991 71.2125 34.0991H70.0478V69.3705H71.2125C71.856 69.3705 72.3772 69.8966 72.3772 70.5462Z" fill="#757575"/>
<path d="M98 27.0449V45.8563C97.9986 46.5044 97.4774 47.0305 96.8353 47.032H75.8712C75.2292 47.0305 74.708 46.5044 74.7065 45.8563V19.9906C74.708 19.3425 75.2292 18.8163 75.8712 18.8149H91.012C91.3585 18.8134 91.6875 18.9677 91.9088 19.2381L97.7321 26.2924C97.9054 26.504 98 26.77 98 27.0449Z" fill="#8B5B9E"/>
<path d="M98 27.0449H92.1766C91.5346 27.0434 91.0134 26.5173 91.012 25.8691V18.8149C91.3585 18.8134 91.6875 18.9677 91.9088 19.2381L97.7321 26.2924C97.9054 26.504 98 26.77 98 27.0449Z" fill="#BDBDBD"/>
<path d="M79.4191 30.572C79.4191 29.9224 79.9403 29.3963 80.5838 29.3963H90.4835C91.127 29.3963 91.6482 29.9224 91.6482 30.572C91.6482 31.2216 91.127 31.7477 90.4835 31.7477H80.5838C79.9403 31.7477 79.4191 31.2216 79.4191 30.572ZM87.5718 34.0991H80.5838C79.9403 34.0991 79.4191 34.6253 79.4191 35.2748C79.4191 35.9244 79.9403 36.4506 80.5838 36.4506H87.5718C88.2153 36.4506 88.7365 35.9244 88.7365 35.2748C88.7365 34.6253 88.2153 34.0991 87.5718 34.0991Z" fill="white"/>
<path d="M98 64.6677V83.4791C97.9986 84.1272 97.4774 84.6533 96.8353 84.6548H75.8712C75.2292 84.6533 74.708 84.1272 74.7065 83.4791V57.6134C74.708 56.9653 75.2292 56.4391 75.8712 56.4377H91.012C91.3585 56.4362 91.6875 56.5905 91.9088 56.8609L97.7321 63.9152C97.9054 64.1268 98 64.3928 98 64.6677Z" fill="#7DBBC8"/>
<path d="M98 64.6677H92.1766C91.5346 64.6662 91.0134 64.1401 91.012 63.4919V56.4377C91.3585 56.4362 91.6875 56.5905 91.9088 56.8609L97.7321 63.9152C97.9054 64.1268 98 64.3928 98 64.6677Z" fill="#BDBDBD"/>
<path d="M79.4191 69.6644C79.4191 69.0149 79.9403 68.4887 80.5838 68.4887H90.4835C91.127 68.4887 91.6482 69.0149 91.6482 69.6644C91.6482 70.314 91.127 70.8401 90.4835 70.8401H80.5838C79.9403 70.8401 79.4191 70.314 79.4191 69.6644ZM87.5718 73.1916H80.5838C79.9403 73.1916 79.4191 73.7177 79.4191 74.3673C79.4191 75.0169 79.9403 75.543 80.5838 75.543H87.5718C88.2153 75.543 88.7365 75.0169 88.7365 74.3673C88.7365 73.7177 88.2153 73.1916 87.5718 73.1916Z" fill="white"/>
<path fill-rule="evenodd" clip-rule="evenodd" d="M54.7702 60.0089C54.7702 58.792 53.9389 57.803 52.914 57.8044C46.9145 57.8177 42.1262 58.2292 38.3017 60.1191C36.4208 61.0479 34.8121 62.3236 33.4334 63.996C33.2325 64.24 32.8875 64.0387 32.9282 63.7006C34.6913 49.2702 41.4959 46.3574 53.2096 46.3574C54.0714 46.3574 54.7688 45.5271 54.7688 44.5057V42.9669C54.7688 42.6642 55.0687 42.504 55.2594 42.7039L62.591 50.4224C63.1282 50.9882 63.1282 51.9861 62.591 52.5519L55.2594 60.2705C55.0687 60.4704 54.7688 60.3102 54.7688 60.0074L54.7702 60.0089Z" fill="black"/>
</svg>
