<svg width="96" height="102" viewBox="0 0 96 102" fill="none" xmlns="http://www.w3.org/2000/svg">
<g clip-path="url(#clip0_125_3046)">
<path d="M47.9988 94.4678C69.8229 94.4678 87.5149 76.7758 87.5149 54.9517C87.5149 33.1275 69.8229 15.4355 47.9988 15.4355C26.1746 15.4355 8.48267 33.1275 8.48267 54.9517C8.48267 76.7758 26.1746 94.4678 47.9988 94.4678Z" fill="#41A5EE"/>
<path d="M92.2252 54.9517H47.9988V10.7253C47.9988 9.8243 48.7496 9.1051 49.6506 9.14462C49.9667 9.16043 50.2907 9.17623 50.6068 9.19204C72.8702 10.4328 90.8975 27.5749 93.5056 49.4511C93.6636 50.7156 93.7585 52.0038 93.8059 53.2999C93.8375 54.2009 93.1262 54.9517 92.2252 54.9517Z" fill="#EE0000"/>
<path d="M93.0472 54.9517C93.0472 66.1426 88.7478 76.322 81.6902 83.9328C81.0738 84.5967 80.0384 84.6204 79.3983 83.9881L59.8457 64.4355L66.1683 54.9517H93.0393H93.0472Z" fill="#FFBA33"/>
<path d="M47.9987 73.9194C58.4743 73.9194 66.9665 65.4272 66.9665 54.9516C66.9665 44.476 58.4743 35.9839 47.9987 35.9839C37.5232 35.9839 29.031 44.476 29.031 54.9516C29.031 65.4272 37.5232 73.9194 47.9987 73.9194Z" fill="white"/>
<path d="M17.1762 40.7256C16.7099 40.7256 16.2515 40.5202 15.9433 40.1329L10.0949 32.8224H0.579425C-0.28993 32.8224 -1.00122 32.1111 -1.00122 31.2418C-1.00122 30.3724 -0.28993 29.6611 0.579425 29.6611H10.8536C11.3357 29.6611 11.7862 29.8824 12.0865 30.2539L18.4091 38.1571C18.9544 38.8368 18.8438 39.8326 18.1641 40.3779C17.8717 40.6071 17.5239 40.7256 17.1762 40.7256Z" fill="#161616"/>
<path d="M0.579424 27.2904H6.902C7.77136 27.2904 8.48265 26.5791 8.48265 25.7098V20.9679C8.48265 20.0985 7.77136 19.3872 6.902 19.3872H0.579424C-0.297834 19.3872 -1.00122 20.0985 -1.00122 20.9679V25.7098C-1.00122 26.5791 -0.297834 27.2904 0.579424 27.2904Z" fill="#41A5EE"/>
<path d="M69.3374 30.4514C68.9344 30.4514 68.5313 30.3012 68.2231 29.9851C67.6066 29.3687 67.6066 28.365 68.2231 27.7485L77.707 18.2646C78.0073 17.9643 78.4024 17.7983 78.8213 17.7983H95.4181C96.2874 17.7983 96.9987 18.5096 96.9987 19.379C96.9987 20.2483 96.2874 20.9596 95.4181 20.9596H79.4773L70.4597 29.9772C70.1515 30.2854 69.7484 30.4435 69.3453 30.4435L69.3374 30.4514Z" fill="#161616"/>
<path d="M95.4182 15.4355H82.773C81.8958 15.4355 81.1924 14.7242 81.1924 13.8548V9.11287C81.1924 8.24352 81.8958 7.53223 82.773 7.53223H95.4182C96.2954 7.53223 96.9988 8.24352 96.9988 9.11287V13.8548C96.9988 14.7242 96.2954 15.4355 95.4182 15.4355Z" fill="#41A5EE"/>
</g>
<defs>
<clipPath id="clip0_125_3046">
<rect width="96" height="102" fill="white" transform="translate(-0.0012207)"/>
</clipPath>
</defs>
</svg>
