<svg width="36" height="36" viewBox="0 0 36 36" fill="none" xmlns="http://www.w3.org/2000/svg">
<path d="M6 24.7498C6 27.2351 8.01472 29.2498 10.5 29.2498C10.5 31.3208 12.1789 32.9998 14.25 32.9998C16.3211 32.9998 18 31.3208 18 29.2498C18 31.3208 19.6789 32.9996 21.75 32.9996C23.8211 32.9996 25.5 31.3207 25.5 29.2496C27.9853 29.2496 30 27.2349 30 24.7496C30 23.8966 29.7627 23.0991 29.3504 22.4194C31.4291 22.0218 33 20.1942 33 17.9996C33 15.8051 31.4291 13.9775 29.3504 13.5799C29.7627 12.9002 30 12.1026 30 11.2496C30 8.76435 27.9853 6.74963 25.5 6.74963C25.5 4.67857 23.8211 2.99963 21.75 2.99963C19.6789 2.99963 18 4.67871 18 6.74978C18 4.67871 16.3211 2.99978 14.25 2.99978C12.1789 2.99978 10.5 4.67871 10.5 6.74978C8.01472 6.74978 6 8.76449 6 11.2498C6 12.1028 6.23733 12.9003 6.64956 13.58C4.5709 13.9776 3 15.8052 3 17.9998C3 20.1943 4.5709 22.0219 6.64956 22.4195C6.23733 23.0992 6 23.8968 6 24.7498Z" stroke="#141B34" stroke-width="3" stroke-linecap="round" stroke-linejoin="round"/>
<path d="M11.25 21.7498L14.0128 13.4613C14.1545 13.0364 14.5521 12.7498 15 12.7498C15.4479 12.7498 15.8455 13.0364 15.9872 13.4613L18.75 21.7498M23.25 12.7498V21.7498M12.75 18.7498H17.25" stroke="#141B34" stroke-width="3" stroke-linecap="round" stroke-linejoin="round"/>
</svg>
