<svg width="100" height="102" viewBox="0 0 100 102" fill="none" xmlns="http://www.w3.org/2000/svg">
<path d="M91.3654 55.6656C96.2387 49.7911 99.1665 42.2356 99.1665 34C99.1665 15.2244 83.9421 0 65.1665 0C46.3909 0 31.1665 15.2244 31.1665 34C31.1665 52.7756 46.3909 68 65.1665 68C70.9465 68 76.3865 66.5456 81.1465 64.0144L99.1665 68L91.3654 55.6656Z" fill="#41A5EE"/>
<path d="M8.63412 89.6656C3.76079 83.7911 0.833008 76.2356 0.833008 68C0.833008 49.2244 16.0575 34 34.833 34C53.6086 34 68.833 49.2244 68.833 68C68.833 86.7756 53.6086 102 34.833 102C29.053 102 23.613 100.546 18.853 98.0144L0.833008 102L8.63412 89.6656Z" fill="#8B5B9E"/>
<path d="M64.2445 34L82.4215 34C83.2011 34 83.833 33.1604 83.833 32.1247V31.8753C83.833 30.8396 83.2011 30 82.4215 30L64.2445 30C63.4649 30 62.833 30.8396 62.833 31.8753V32.1247C62.833 33.1604 63.4649 34 64.2445 34Z" fill="white"/>
<path d="M50.2597 23L82.4064 23C83.1943 23 83.833 22.1604 83.833 21.1247V20.8753C83.833 19.8396 83.1943 19 82.4064 19L50.2597 19C49.4717 19 48.833 19.8396 48.833 20.8753V21.1247C48.833 22.1604 49.4717 23 50.2597 23Z" fill="white"/>
<path d="M32.4636 75.5015H24.977L23.6701 79.7349H17.833L26.1444 57.0738H31.2803L39.6534 79.7349H33.7864L32.4636 75.5015ZM31.1548 71.2841L28.7104 63.4249L26.2819 71.2841H31.1548ZM41.0221 58.552C41.0221 57.8049 41.291 57.1933 41.8309 56.7152C42.3708 56.2391 43.07 56 43.9327 56C44.7953 56 45.4945 56.2391 46.0344 56.7152C46.5743 57.1933 46.8432 57.8049 46.8432 58.552C46.8432 59.2991 46.5743 59.9107 46.0344 60.3888C45.4945 60.8669 44.7953 61.104 43.9327 61.104C43.07 61.104 42.3708 60.8649 41.8309 60.3888C41.291 59.9127 41.0221 59.2991 41.0221 58.552ZM46.5942 79.7349H41.3329V62.895H46.5942V79.7349Z" fill="white"/>
</svg>
