<svg width="36" height="36" viewBox="0 0 36 36" fill="none" xmlns="http://www.w3.org/2000/svg">
<path d="M18.75 3.01763C18.5015 3.00592 18.2515 3 18 3C9.71667 3 3 9.42536 3 17.3501C3 21.1576 4.55 24.6173 7.07833 27.1847C7.635 27.75 8.00667 28.5223 7.85667 29.3172C7.60912 30.6168 7.04811 31.8291 6.22667 32.8395C8.38793 33.2415 10.6352 32.8795 12.5625 31.8546C13.2438 31.4923 13.5844 31.3111 13.8248 31.2744C14.0652 31.2377 14.4095 31.3024 15.0981 31.4317C16.0549 31.6114 17.026 31.7014 18 31.7002C26.2833 31.7002 33 25.2748 33 17.3501C33 17.0647 32.9913 16.7813 32.9741 16.5" stroke="#141B34" stroke-width="3" stroke-linecap="round" stroke-linejoin="round"/>
<path d="M22.5 8.25H33M27.75 3L27.75 13.5" stroke="#141B34" stroke-width="3" stroke-linecap="round" stroke-linejoin="round"/>
<path d="M17.9933 18H18.0067M23.9865 18H24M12 18H12.0135" stroke="#141B34" stroke-width="3" stroke-linecap="round" stroke-linejoin="round"/>
</svg>
