<svg width="98" height="102" viewBox="0 0 98 102" fill="none" xmlns="http://www.w3.org/2000/svg">
<path d="M0 38.75L47.187 68.7809C47.726 69.179 48.363 69.375 49 69.375C49.637 69.375 50.274 69.179 50.813 68.7809L98 38.75L50.8375 2.6125C49.7473 1.79787 48.2527 1.79787 47.1625 2.6125L0 38.75Z" fill="#41A5EE"/>
<path d="M79.625 2H18.375C15.0001 2 12.25 4.75013 12.25 8.125V75.5C12.25 77.1905 13.622 78.5625 15.3125 78.5625H82.6875C84.378 78.5625 85.75 77.1905 85.75 75.5V8.125C85.75 4.75013 83.006 2 79.625 2Z" fill="#E5E1DC"/>
<path d="M27.5625 20.375H70.4375C72.128 20.375 73.5 19.003 73.5 17.3125C73.5 15.622 72.128 14.25 70.4375 14.25H27.5625C25.872 14.25 24.5 15.622 24.5 17.3125C24.5 19.003 25.872 20.375 27.5625 20.375Z" fill="#161616"/>
<path d="M70.4375 26.5H27.5625C25.872 26.5 24.5 27.872 24.5 29.5625C24.5 31.253 25.872 32.625 27.5625 32.625H70.4375C72.128 32.625 73.5 31.253 73.5 29.5625C73.5 27.872 72.128 26.5 70.4375 26.5Z" fill="#161616"/>
<path d="M52.0625 38.75H27.5625C25.872 38.75 24.5 40.122 24.5 41.8125C24.5 43.503 25.872 44.875 27.5625 44.875H52.0625C53.753 44.875 55.125 43.503 55.125 41.8125C55.125 40.122 53.753 38.75 52.0625 38.75Z" fill="#161616"/>
<path d="M50.813 68.7809C50.274 69.179 49.637 69.375 49 69.375C48.363 69.375 47.726 69.179 47.187 68.7809L0 38.75V93.875C0 97.256 2.744 100 6.125 100H91.875C95.256 100 98 97.256 98 93.875V38.75L50.813 68.7809Z" fill="#1E88E5"/>
<path d="M91.875 100H6.125C2.68888 100 0 97.3111 0 93.875C0 92.9011 0.4655 91.9824 1.2495 91.4066L47.187 60.7816C47.726 60.3835 48.363 60.1875 49 60.1875C49.637 60.1875 50.274 60.3835 50.813 60.7816L96.7505 91.4066C97.5345 91.9824 98 92.9011 98 93.875C98 97.3111 95.3111 100 91.875 100Z" fill="#41A5EE"/>
</svg>
