<svg width="98" height="102" viewBox="0 0 98 102" fill="none" xmlns="http://www.w3.org/2000/svg">
<path fill-rule="evenodd" clip-rule="evenodd" d="M62.3155 30.5001H27.7218C25.8638 30.5001 24.3574 32.0065 24.3574 33.8644V80.9122C24.3574 82.7702 25.8638 84.2766 27.7218 84.2766H62.3155C64.1735 84.2766 65.6799 82.7702 65.6799 80.9122V33.8621C65.6799 32.0041 64.1735 30.4977 62.3155 30.4977V30.5001ZM40.2154 68.9285V59.1171H49.8242V68.9285H40.2154ZM49.8242 71.8109V81.3895H40.2154V71.8109H49.8242ZM49.8242 46.0717V56.2323H40.2154V46.0717H49.8242ZM40.2154 43.1892V33.3825H49.8242V43.1892H40.2154ZM52.7066 46.0717H62.7974V56.2323H52.7066V46.0717ZM37.3306 56.2323H27.2398V46.0717H37.3306V56.2323ZM27.2421 59.1147H37.3329V68.9261H27.2421V59.1147ZM52.7066 59.1147H62.7974V68.9261H52.7066V59.1147ZM62.7951 33.8621V43.1892H52.7043V33.3825H62.3132C62.5786 33.3825 62.7928 33.5967 62.7928 33.8621H62.7951ZM37.3306 33.3825V43.1892H27.2398V33.8621C27.2398 33.5967 27.454 33.3825 27.7194 33.3825H37.3306ZM27.2421 80.9098V71.8109H37.3329V81.3895H27.7241C27.4587 81.3895 27.2445 81.1753 27.2445 80.9098H27.2421ZM52.7066 81.3895V71.8109H62.7974V80.9098C62.7974 81.1753 62.5832 81.3895 62.3178 81.3895H52.7066Z" fill="#1E88E5"/>
<path d="M68.2549 48.3115C76.0268 48.3115 82.3271 42.0112 82.3271 34.2393C82.3271 26.4675 76.0268 20.1671 68.2549 20.1671C60.4831 20.1671 54.1828 26.4675 54.1828 34.2393C54.1828 42.0112 60.4831 48.3115 68.2549 48.3115Z" fill="#7DBBC8"/>
<path d="M76.3644 45.9017L79.8754 42.3906L88.8789 51.3941C89.8475 52.3627 89.8475 53.9366 88.8789 54.9052C87.9104 55.8738 86.3364 55.8738 85.3679 54.9052L76.3644 45.9017Z" fill="black"/>
<path d="M69.0256 97.1217H21.0116C15.9872 97.1217 11.9057 93.0379 11.9057 88.0158V26.7562C11.9057 21.7317 15.9895 17.6502 21.0116 17.6502H47.6007V22.6165H21.0116C18.7299 22.6165 16.8719 24.4745 16.8719 26.7562V88.0158C16.8719 90.2975 18.7299 92.1555 21.0116 92.1555H69.0256C71.3073 92.1555 73.1653 90.2975 73.1653 88.0158V57.6828H78.1315V88.0158C78.1315 93.0402 74.0477 97.1217 69.0256 97.1217Z" fill="black"/>
<path d="M68.1991 50.7632C59.0699 50.7632 51.6426 43.3359 51.6426 34.2067C51.6426 25.0775 59.0699 17.6502 68.1991 17.6502C77.3283 17.6502 84.7555 25.0775 84.7555 34.2067C84.7555 43.3359 77.3283 50.7632 68.1991 50.7632ZM68.1991 22.6165C61.8079 22.6165 56.6088 27.8156 56.6088 34.2067C56.6088 40.5979 61.8079 45.7969 68.1991 45.7969C74.5902 45.7969 79.7893 40.5979 79.7893 34.2067C79.7893 27.8156 74.5902 22.6165 68.1991 22.6165Z" fill="black"/>
<path d="M1.07451 5.36387C1.72177 4.7166 2.7695 4.7166 3.41676 5.36387L5.75902 7.70612C6.40629 8.35339 6.40629 9.40112 5.75902 10.0484C5.11176 10.6956 4.06403 10.6956 3.41676 10.0484L1.07451 7.70612C0.427241 7.05886 0.427241 6.01113 1.07451 5.36387Z" fill="#A4AFC1"/>
<path d="M0.485448 21.1683L2.82771 18.826C3.47497 18.1788 4.5227 18.1788 5.16997 18.826C5.81723 19.4733 5.81723 20.521 5.16997 21.1683L2.82771 23.5105C2.18044 24.1578 1.13271 24.1578 0.485448 23.5105C-0.161816 22.8633 -0.161816 21.8156 0.485448 21.1683Z" fill="#A4AFC1"/>
<path d="M13.9523 7.70612L16.2945 5.36387C16.9418 4.7166 17.9895 4.7166 18.6368 5.36387C19.2841 6.01113 19.2841 7.05886 18.6368 7.70612L16.2945 10.0484C15.6473 10.6956 14.5995 10.6956 13.9523 10.0484C13.305 9.40112 13.305 8.35339 13.9523 7.70612Z" fill="#A4AFC1"/>
<path d="M93.0326 78.081C90.2945 78.081 88.0664 75.8528 88.0664 73.1147C88.0664 70.3767 90.2945 68.1485 93.0326 68.1485C95.7707 68.1485 97.9988 70.3767 97.9988 73.1147C97.9988 75.8528 95.7707 78.081 93.0326 78.081ZM93.0326 71.4593C92.1222 71.4593 91.3772 72.2044 91.3772 73.1147C91.3772 74.0251 92.1222 74.7702 93.0326 74.7702C93.943 74.7702 94.688 74.0251 94.688 73.1147C94.688 72.2044 93.943 71.4593 93.0326 71.4593Z" fill="#A4AFC1"/>
</svg>
