<svg width="96" height="102" viewBox="0 0 96 102" fill="none" xmlns="http://www.w3.org/2000/svg">
<path d="M68.0006 0H12.6881C10.0987 0 8.00062 2.22926 8.00062 4.98047V97.0195C8.00062 99.7707 10.0987 102 12.6881 102H83.3119C85.9012 102 87.9994 99.7707 87.9994 97.0195V21.2507L68.0006 0Z" fill="#41A5EE"/>
<path d="M68.0006 0L88.0013 21.2507H72.6881C70.0988 21.2507 68.0006 19.0214 68.0006 16.2702V0Z" fill="#D8EFFF"/>
<path d="M91.3125 49.4919H4.6875C2.09867 49.4919 0 51.7217 0 54.4724V82.7614C0 85.5121 2.09867 87.7419 4.6875 87.7419H91.3125C93.9013 87.7419 96 85.5121 96 82.7614V54.4724C96 51.7217 93.9013 49.4919 91.3125 49.4919Z" fill="#161616"/>
<path d="M44.8442 20.5474H20.6979C19.6624 20.5474 18.8229 21.4394 18.8229 22.5396V22.8046C18.8229 23.9048 19.6624 24.7968 20.6979 24.7968H44.8442C45.8797 24.7968 46.7192 23.9048 46.7192 22.8046V22.5396C46.7192 21.4394 45.8797 20.5474 44.8442 20.5474Z" fill="white"/>
<path d="M62.9473 31.6437H20.6979C19.6624 31.6437 18.8229 32.5356 18.8229 33.6359V33.9008C18.8229 35.0011 19.6624 35.893 20.6979 35.893H62.9473C63.9828 35.893 64.8223 35.0011 64.8223 33.9008V33.6359C64.8223 32.5356 63.9828 31.6437 62.9473 31.6437Z" fill="white"/>
<path d="M48.1163 76.251H41.07L39.84 80.4844H34.3462L42.1687 57.8232H47.0025L54.8831 80.4844H49.3613L48.1163 76.251ZM46.8844 72.0335L44.5837 64.1743L42.2981 72.0335H46.8844ZM56.1713 59.3014C56.1713 58.5544 56.4244 57.9428 56.9325 57.4647C57.4406 56.9885 58.0988 56.7495 58.9106 56.7495C59.7225 56.7495 60.3806 56.9885 60.8887 57.4647C61.3969 57.9428 61.65 58.5544 61.65 59.3014C61.65 60.0485 61.3969 60.6601 60.8887 61.1382C60.3806 61.6164 59.7225 61.8534 58.9106 61.8534C58.0988 61.8534 57.4406 61.6144 56.9325 61.1382C56.4244 60.6621 56.1713 60.0485 56.1713 59.3014ZM61.4156 80.4844H56.4638V63.6444H61.4156V80.4844Z" fill="white"/>
</svg>
