<svg width="346" height="113" viewBox="0 0 346 113" fill="none" xmlns="http://www.w3.org/2000/svg">
<g clip-path="url(#clip0_21_397)">
<path d="M125.508 49.2465H140.905C140.947 49.2549 140.972 49.28 140.972 49.3135V52.6284C140.972 52.6703 140.947 52.6954 140.905 52.6954H126.81C126.02 52.7958 125.626 53.1725 125.626 53.8338C125.626 54.2775 125.869 54.6123 126.348 54.8383C126.491 54.9053 126.667 54.9304 126.86 54.9304H136.439C137.782 54.9304 138.983 55.4662 140.015 56.5293C140.645 57.2576 140.964 58.0361 140.964 58.8732V59.8777C140.964 61.2924 140.133 62.4392 138.479 63.3098C137.791 63.6195 137.085 63.7702 136.363 63.7702H121.034C120.992 63.7702 120.967 63.7451 120.967 63.7032V60.3883C120.967 60.3883 121 60.3381 121.034 60.3381H135.054C135.625 60.3381 136.019 60.087 136.237 59.5847C136.271 59.367 136.288 59.2415 136.288 59.208C136.288 58.756 136.053 58.4211 135.583 58.1951C135.44 58.1281 135.264 58.103 135.054 58.103H125.618C124.064 58.103 122.763 57.5003 121.714 56.2949C121.218 55.6336 120.967 54.9388 120.967 54.2105V53.206C120.967 51.8834 121.705 50.7868 123.174 49.9162C124.014 49.5311 124.786 49.3135 125.492 49.2633L125.508 49.2465Z" fill="#161616"/>
<path d="M146.832 49.2465H162.128C163.723 49.2465 165.041 49.8995 166.099 51.197C166.536 51.8834 166.754 52.5279 166.754 53.1474V55.8429C166.754 57.1487 166.049 58.2537 164.638 59.1578C163.832 59.5763 163.035 59.7772 162.254 59.7772H151.416V63.7032C151.416 63.7451 151.391 63.7702 151.349 63.7702H146.832C146.79 63.7702 146.765 63.7451 146.765 63.7032V49.3302C146.773 49.2884 146.799 49.2633 146.832 49.2633V49.2465ZM151.416 52.687V56.3116H160.248C161.188 56.3116 161.784 55.9015 162.036 55.0811C162.069 54.8886 162.086 54.7044 162.086 54.5286C162.086 53.658 161.717 53.0721 160.986 52.7874C160.76 52.7205 160.533 52.6954 160.298 52.6954H151.416V52.687Z" fill="#161616"/>
<path d="M172.631 49.2465H192.485C192.527 49.2549 192.552 49.28 192.552 49.3135V52.6284C192.552 52.6703 192.527 52.6954 192.485 52.6954H177.214V54.9304H188.514C188.556 54.9388 188.582 54.9639 188.582 54.9974V58.0109C188.582 58.0528 188.556 58.0779 188.514 58.0779H177.214V60.3213H192.485C192.527 60.3213 192.552 60.3381 192.552 60.3716V63.6865C192.552 63.7283 192.527 63.7534 192.485 63.7534H172.631C172.589 63.7534 172.563 63.7283 172.563 63.6865V49.3135C172.572 49.2716 172.597 49.2465 172.631 49.2465Z" fill="#161616"/>
<path d="M202.879 49.2465H218.275C218.317 49.2549 218.342 49.28 218.342 49.3135V52.6284C218.342 52.6703 218.317 52.6954 218.275 52.6954H205.38C204.213 52.6954 203.433 53.3316 203.046 54.604C203.021 54.83 203.004 55.0058 203.004 55.1313V57.944C203.004 59.0071 203.542 59.7521 204.608 60.1874C204.826 60.2795 205.086 60.3213 205.38 60.3213H218.275C218.317 60.3213 218.342 60.3381 218.342 60.3716V63.6865C218.342 63.7283 218.317 63.7535 218.275 63.7535H202.979C201.393 63.7535 200.083 63.1173 199.034 61.8365C198.58 61.1836 198.354 60.5223 198.354 59.8358V53.0721C198.354 51.8918 199.025 50.8538 200.377 49.9581C201.25 49.4809 202.089 49.2382 202.887 49.2382L202.879 49.2465Z" fill="#161616"/>
<path d="M224.211 49.2465H244.065C244.107 49.2549 244.133 49.28 244.133 49.3135V52.6284C244.133 52.6703 244.107 52.6954 244.065 52.6954H236.485V63.6865C236.485 63.7283 236.459 63.7534 236.417 63.7534H231.884C231.842 63.7534 231.817 63.7283 231.817 63.6865V52.6954H224.211C224.169 52.6954 224.144 52.6703 224.144 52.6284V49.3135C224.152 49.2716 224.177 49.2465 224.211 49.2465Z" fill="#161616"/>
<path d="M250.001 49.2465H265.33C266.724 49.2465 267.941 49.7823 268.982 50.8454C269.612 51.5737 269.931 52.3689 269.931 53.2144V55.8345C269.931 57.199 269.184 58.3207 267.681 59.2164L267.102 59.4759L269.939 63.7367L269.872 63.7618H264.365C264.231 63.6111 263.332 62.2802 261.67 59.7689H254.601V63.6948C254.601 63.7367 254.576 63.7618 254.534 63.7618H250.018C249.976 63.7618 249.95 63.7367 249.95 63.6948V49.3219C249.959 49.28 249.984 49.2549 250.018 49.2549L250.001 49.2465ZM254.593 52.687V56.3116H263.425C264.365 56.3116 264.961 55.9015 265.213 55.0811C265.246 54.8886 265.263 54.7044 265.263 54.5286C265.263 53.658 264.894 53.0721 264.164 52.7874C263.937 52.7205 263.71 52.6954 263.475 52.6954H254.593V52.687Z" fill="#161616"/>
<path d="M284.287 49.2465H288.913C289.005 49.3302 289.954 50.9123 291.775 53.9929C295.444 60.2041 297.358 63.4521 297.509 63.7283V63.7534H292.162C292.061 63.6614 291.473 62.6903 290.399 60.832H282.818C281.793 62.6066 281.223 63.5777 281.097 63.7534H275.724V63.6865C281.223 54.3696 284.077 49.5562 284.278 49.2465H284.287ZM286.604 54.4784L284.866 57.3999H288.35C287.25 55.5164 286.663 54.5454 286.604 54.4784Z" fill="#161616"/>
<path d="M303.377 60.3214H307.894C307.936 60.3214 307.961 60.3381 307.961 60.3716V63.6865C307.961 63.7283 307.936 63.7535 307.894 63.7535H303.377C303.335 63.7535 303.31 63.7283 303.31 63.6865V60.3716C303.31 60.3716 303.344 60.3214 303.377 60.3214Z" fill="#161616"/>
<path d="M322.326 49.2465H326.951C327.044 49.3302 327.992 50.9123 329.814 53.9929C333.483 60.2041 335.397 63.4521 335.548 63.7283V63.7534H330.2C330.1 63.6614 329.512 62.6903 328.437 60.832H320.856C319.832 62.6066 319.261 63.5777 319.135 63.7534H313.762V63.6865C319.261 54.3696 322.116 49.5562 322.317 49.2465H322.326ZM324.643 54.4784L322.905 57.3999H326.389C325.289 55.5164 324.701 54.5454 324.643 54.4784Z" fill="#161616"/>
<path d="M341.416 49.2465H345.933C345.975 49.2549 346 49.28 346 49.3135V63.6865C346 63.7283 345.975 63.7534 345.933 63.7534H341.416C341.374 63.7534 341.349 63.7283 341.349 63.6865V49.3135C341.358 49.2716 341.383 49.2465 341.416 49.2465Z" fill="#161616"/>
<path d="M49.07 0.410156L0.302246 28.4865V84.6391L49.07 112.715L97.8461 84.6391V28.4865L49.07 0.410156Z" fill="white"/>
<path d="M69.9993 92.6418H28.1492L7.21997 56.5042L28.1492 20.3666H69.9993L90.9286 56.5042L69.9993 92.6418ZM28.4011 92.1897H69.7307L90.3997 56.4958L69.7307 20.8019H28.4011L7.73208 56.4958L28.4011 92.1897Z" fill="url(#paint0_linear_21_397)"/>
<path d="M68.656 94.8266L25.5802 92.5748L5.99414 54.244L29.4923 18.1734L72.5681 20.4252L92.1541 58.7476L68.656 94.8182V94.8266ZM25.8572 92.1395L68.4209 94.3662L91.6336 58.7225L72.2827 20.8605L29.719 18.6338L6.50625 54.2775L25.8572 92.1395Z" fill="url(#paint1_linear_21_397)"/>
<path d="M67.1534 97.003L22.9358 92.3655L4.85254 51.8666L30.9868 15.9969L75.2044 20.6345L93.2876 61.1333L67.1534 97.003ZM23.238 91.9469L66.9435 96.5259L92.7755 61.0747L74.9021 21.0447L31.1967 16.4657L5.36465 51.9169L23.238 91.9469Z" fill="url(#paint2_linear_21_397)"/>
<path d="M65.4909 99.1627L20.224 92.0139L3.80298 49.347L32.6489 13.8372L77.9158 20.986L94.3369 63.653L65.4909 99.1711V99.1627ZM20.5514 91.6121L65.3063 98.6772L93.8248 63.5609L77.5884 21.3795L32.8336 14.3144L4.31509 49.4307L20.5514 91.6121Z" fill="url(#paint3_linear_21_397)"/>
<path d="M63.6693 101.297L17.4621 91.5033L2.86279 46.7017L34.4707 11.7026L80.6779 21.4967L95.2772 66.2982L63.6693 101.306V101.297ZM17.8063 91.1182L63.5098 100.803L94.7735 66.181L80.3337 21.8734L34.6302 12.1882L3.36651 46.8106L17.8063 91.1182Z" fill="url(#paint4_linear_21_397)"/>
<path d="M61.6713 103.398L14.6329 90.8336L2.03174 43.9309L36.4689 9.6015L83.5072 22.1664L96.1084 69.069L61.6797 103.398H61.6713ZM15.0023 90.4653L61.537 102.896L95.6047 68.9267L83.1378 22.5263L36.6032 10.0954L2.53545 44.0649L15.0023 90.4653Z" fill="url(#paint5_linear_21_397)"/>
<path d="M59.5051 105.449L11.77 89.9798L1.33472 41.0346L38.6346 7.54224L86.3697 23.0118L96.805 71.9654L59.5051 105.449ZM12.1561 89.6365L59.396 104.939L96.3097 71.798L85.9836 23.3467L38.7437 8.05287L1.83003 41.1936L12.1561 89.6365Z" fill="url(#paint6_linear_21_397)"/>
<path d="M57.1631 107.45L57.0455 107.4L8.86544 88.9585L0.772461 38.0127L40.9771 5.54999L41.0946 5.60021L89.2747 24.0415L97.3677 74.9957L57.1631 107.458V107.45ZM9.26841 88.6404L57.0875 106.939L96.8892 74.8032L88.8801 24.3596L41.0611 6.06062L1.25938 38.1969L9.26841 88.6404Z" fill="url(#paint7_linear_21_397)"/>
<path d="M54.6443 109.384L5.92696 87.7531L0.352539 34.8736L43.4955 3.61627L92.2129 25.2469L97.7873 78.1265L54.6443 109.384ZM6.34672 87.4517L54.594 108.873L97.3172 77.9256L91.7931 25.5566L43.5543 4.1269L0.822671 35.0828L6.34672 87.4517Z" fill="url(#paint8_linear_21_397)"/>
<path d="M51.9495 111.234L2.97184 86.3468V86.2212L0.0922852 31.6172L46.1904 1.7663L95.168 26.6532V26.7788L98.0475 81.3828L51.9495 111.234ZM3.40839 86.0705L51.9243 110.723L97.5942 81.1568L94.7482 26.9379L46.2239 2.27693L0.554021 31.8516L3.4 86.0705H3.40839Z" fill="url(#paint9_linear_21_397)"/>
<path d="M49.07 113L0 84.7479V28.2521L49.07 0L98.1399 28.2521V84.7479L49.07 113ZM0.453341 84.4884L49.0784 112.481L97.695 84.4884V28.5116L49.07 0.519001L0.453341 28.5116V84.4884Z" fill="url(#paint10_linear_21_397)"/>
<path d="M49.2462 87.1587C48.986 87.1587 48.583 87.1253 47.9366 87.0583C45.7622 86.8239 42.6308 85.0074 41.1784 83.5257C40.2214 82.5463 33.3793 75.3556 32.9007 74.1084C32.439 72.9197 30.5837 60.472 30.3906 58.5383C30.1723 56.3786 30.7516 46.5511 30.9783 44.1905L31.0034 43.9226C31.2217 41.6373 31.5827 37.8118 35.5788 32.2534C39.7177 26.4942 49.263 26.7202 49.666 26.7369L49.6492 27.2225C49.5568 27.2225 39.9611 26.9964 35.965 32.538C32.0444 37.9875 31.6918 41.7294 31.482 43.9644L31.4568 44.2323C31.2301 46.5846 30.6508 56.3535 30.8691 58.4881C31.1042 60.7818 32.9259 72.836 33.3541 73.9326C33.7571 74.9538 39.7009 81.3074 41.531 83.1825C42.9246 84.6056 45.9805 86.3635 47.9953 86.5728C49.1623 86.6983 49.3721 86.6732 49.3973 86.6649V86.69L49.4393 86.5811C49.7331 86.6732 49.7499 86.8406 49.7247 86.9327C49.6912 87.075 49.6492 87.1587 49.2546 87.1587H49.2462ZM49.2378 86.849C49.2294 86.9244 49.2546 86.9913 49.2882 87.0248L49.3386 86.8741L49.2378 86.849Z" fill="url(#paint11_linear_21_397)"/>
<path d="M44.4611 49.6902L41.6487 39.7287L39.3232 31.6088L41.6403 27.9256L46.7446 31.2656L49.4479 26.8541L49.8592 27.1053L47.1476 31.5251L49.8928 33.3165V46.7603L44.4695 49.6818L44.4611 49.6902ZM42.3455 40.39L44.7717 48.9703L49.238 46.5678L42.3455 40.39ZM42.1944 39.6115L49.4059 46.0823V33.5844L46.8957 31.9437L42.1944 39.6199V39.6115ZM39.8437 31.6842L41.9593 39.0674L46.4844 31.6758L41.7746 28.5953L39.8354 31.6842H39.8437Z" fill="url(#paint12_linear_21_397)"/>
<path d="M36.4265 31.3332L36.416 31.8186L39.5719 31.8862L39.5823 31.4008L36.4265 31.3332Z" fill="url(#paint13_linear_21_397)"/>
<path d="M34.1079 34.9363L33.8657 35.3575L41.7612 39.8699L42.0033 39.4487L34.1079 34.9363Z" fill="url(#paint14_linear_21_397)"/>
<path d="M36.1946 31.5388L35.384 36.1988L35.8638 36.2818L36.6744 31.6217L36.1946 31.5388Z" fill="url(#paint15_linear_21_397)"/>
<path d="M38.2027 51.4905L35.4287 53.9731L35.754 54.3345L38.5279 51.8518L38.2027 51.4905Z" fill="url(#paint16_linear_21_397)"/>
<path d="M35.7106 53.9282L35.4854 54.3586L39.0656 56.221L39.2908 55.7905L35.7106 53.9282Z" fill="url(#paint17_linear_21_397)"/>
<path d="M45.2765 55.124L39.1572 55.7717L39.2086 56.2545L45.3279 55.6068L45.2765 55.124Z" fill="url(#paint18_linear_21_397)"/>
<path d="M38.4005 51.4272L38.3435 51.9094L44.1131 52.5872L44.1701 52.105L38.4005 51.4272Z" fill="url(#paint19_linear_21_397)"/>
<path d="M44.3714 52.2558L43.9165 52.4291L45.0731 55.4475L45.5279 55.2742L44.3714 52.2558Z" fill="url(#paint20_linear_21_397)"/>
<path d="M35.381 36.2068L34.4797 42.7163L34.9621 42.7827L35.8633 36.2732L35.381 36.2068Z" fill="url(#paint21_linear_21_397)"/>
<path d="M34.5942 42.5312L31.0461 44.4537L31.2786 44.8803L34.8267 42.9578L34.5942 42.5312Z" fill="url(#paint22_linear_21_397)"/>
<path d="M34.9419 42.6484L34.4912 42.8321L38.1469 51.751L38.5977 51.5673L34.9419 42.6484Z" fill="url(#paint23_linear_21_397)"/>
<path d="M41.6532 39.6002L38.1372 51.605L38.6046 51.7411L42.1206 39.7364L41.6532 39.6002Z" fill="url(#paint24_linear_21_397)"/>
<path d="M44.5268 49.1172L38.2839 51.447L38.4546 51.9017L44.6975 49.5719L44.5268 49.1172Z" fill="url(#paint25_linear_21_397)"/>
<path d="M44.3703 49.2936L43.8928 52.3032L44.3738 52.379L44.8513 49.3694L44.3703 49.2936Z" fill="url(#paint26_linear_21_397)"/>
<path d="M41.7833 39.4331L34.6157 42.52L34.8088 42.9657L41.9764 39.8789L41.7833 39.4331Z" fill="url(#paint27_linear_21_397)"/>
<path d="M49.5072 33.2681L41.7356 39.4741L42.04 39.8531L49.8116 33.647L49.5072 33.2681Z" fill="url(#paint28_linear_21_397)"/>
<path d="M34.9659 42.7224L34.4805 42.7598L35.3623 54.1607L35.8477 54.1233L34.9659 42.7224Z" fill="url(#paint29_linear_21_397)"/>
<path d="M30.9988 49.5878L30.6687 49.9447L35.4333 54.3256L35.7634 53.9687L30.9988 49.5878Z" fill="url(#paint30_linear_21_397)"/>
<path d="M35.4012 54.0086L30.688 60.0674L31.0727 60.365L35.786 54.3062L35.4012 54.0086Z" fill="url(#paint31_linear_21_397)"/>
<path d="M39.0665 55.7879L30.7649 60.0275L30.9869 60.4596L39.2885 56.2201L39.0665 55.7879Z" fill="url(#paint32_linear_21_397)"/>
<path d="M30.9741 60.0231L30.6929 60.4194L39.2938 66.4872L39.575 66.0908L30.9741 60.0231Z" fill="url(#paint33_linear_21_397)"/>
<path d="M39.4199 56.0049L38.9331 56.017L39.1904 66.2933L39.6772 66.2812L39.4199 56.0049Z" fill="url(#paint34_linear_21_397)"/>
<path d="M45.4855 55.1969L45.114 55.5108L47.1548 57.912L47.5263 57.5981L45.4855 55.1969Z" fill="url(#paint35_linear_21_397)"/>
<path d="M47.0955 57.7103L45.4717 66.2387L45.9501 66.3293L47.5739 57.8009L47.0955 57.7103Z" fill="url(#paint36_linear_21_397)"/>
<path d="M45.8329 66.0792L45.5813 66.4949L49.5202 68.8651L49.7718 68.4494L45.8329 66.0792Z" fill="url(#paint37_linear_21_397)"/>
<path d="M49.4828 62.4943L45.5396 66.1086L45.8691 66.4661L49.8123 62.8518L49.4828 62.4943Z" fill="url(#paint38_linear_21_397)"/>
<path d="M47.5469 57.6621L47.1062 57.8685L49.419 62.7782L49.8598 62.5718L47.5469 57.6621Z" fill="url(#paint39_linear_21_397)"/>
<path d="M44.8014 49.175L44.4294 49.4884L49.794 55.8182L50.1659 55.5048L44.8014 49.175Z" fill="url(#paint40_linear_21_397)"/>
<path d="M49.8328 55.4666L47.1865 57.5685L47.4899 57.9482L50.1362 55.8463L49.8328 55.4666Z" fill="url(#paint41_linear_21_397)"/>
<path d="M44.8442 49.2615L44.3806 49.4101L47.0988 57.8417L47.5624 57.6931L44.8442 49.2615Z" fill="url(#paint42_linear_21_397)"/>
<path d="M45.7181 66.0461L45.7036 66.5314L49.5301 66.6447L49.5446 66.1594L45.7181 66.0461Z" fill="url(#paint43_linear_21_397)"/>
<path d="M47.5769 70.9259L42.0374 74.199L42.2856 74.6167L47.8251 71.3436L47.5769 70.9259Z" fill="url(#paint44_linear_21_397)"/>
<path d="M47.8104 70.9245L47.5664 71.3447L49.5208 72.4729L49.7648 72.0528L47.8104 70.9245Z" fill="url(#paint45_linear_21_397)"/>
<path d="M42.2623 74.1939L42.0369 74.6243L45.2887 76.3179L45.5141 75.8876L42.2623 74.1939Z" fill="url(#paint46_linear_21_397)"/>
<path d="M45.4161 75.8681L45.4031 76.3535L49.6495 76.4665L49.6625 75.9812L45.4161 75.8681Z" fill="url(#paint47_linear_21_397)"/>
<path d="M49.4192 78.8601L46.6831 86.5346L47.1419 86.6972L49.878 79.0228L49.4192 78.8601Z" fill="url(#paint48_linear_21_397)"/>
<path d="M45.5427 75.9062L45.2725 76.3101L49.5185 79.1348L49.7887 78.7309L45.5427 75.9062Z" fill="url(#paint49_linear_21_397)"/>
<path d="M38.9462 55.9426L32.8831 73.9485L33.3447 74.1031L39.4078 56.0972L38.9462 55.9426Z" fill="url(#paint50_linear_21_397)"/>
<path d="M39.252 66.1389L32.9299 73.8737L33.3074 74.1804L39.6294 66.4456L39.252 66.1389Z" fill="url(#paint51_linear_21_397)"/>
<path d="M33.1241 73.7736L33.1028 74.2586L42.1357 74.6534L42.1571 74.1684L33.1241 73.7736Z" fill="url(#paint52_linear_21_397)"/>
<path d="M41.9108 74.3888L40.6746 82.8801L41.1564 82.9498L42.3927 74.4586L41.9108 74.3888Z" fill="url(#paint53_linear_21_397)"/>
<path d="M45.2052 75.9609L40.7134 82.7638L41.1201 83.0308L45.6119 76.2278L45.2052 75.9609Z" fill="url(#paint54_linear_21_397)"/>
<path d="M45.6517 76.0746L45.1697 76.1433L46.6758 86.6425L47.1578 86.5738L45.6517 76.0746Z" fill="url(#paint55_linear_21_397)"/>
<path d="M39.5647 66.0842L39.3174 66.5024L47.5756 71.3586L47.8229 70.9404L39.5647 66.0842Z" fill="url(#paint56_linear_21_397)"/>
<path d="M45.4826 66.1964L41.9175 74.4269L42.3645 74.6194L45.9296 66.3889L45.4826 66.1964Z" fill="url(#paint57_linear_21_397)"/>
<path d="M39.3827 55.8828L38.9714 56.1426L45.5004 66.4168L45.9117 66.1569L39.3827 55.8828Z" fill="url(#paint58_linear_21_397)"/>
<path d="M45.7036 66.0471H39.4324V66.5326H45.7036V66.0471Z" fill="url(#paint59_linear_21_397)"/>
<path d="M39.6619 66.2117L39.2 66.3652L41.9192 74.497L42.3811 74.3434L39.6619 66.2117Z" fill="url(#paint60_linear_21_397)"/>
<path d="M31.8597 67.4283C31.8093 67.4283 30.5249 67.3613 29.912 66.7335C29.5258 66.3401 29.3579 65.1681 29.0809 63.1172C28.9466 62.096 28.8038 61.0412 28.6108 60.0618C28.468 59.3503 28.2917 58.6304 28.1238 57.9356C27.6537 56.0354 27.1668 54.0766 27.3683 51.9755C27.4438 51.1635 27.7377 50.6445 28.2414 50.4268C29.2992 49.9748 30.8355 51.1384 30.8943 51.1802L30.6004 51.5653C30.2226 51.2723 29.0893 50.5859 28.4345 50.8705C28.107 51.0128 27.914 51.3979 27.8468 52.0257C27.6537 54.0431 28.1238 55.9684 28.5856 57.8268C28.7619 58.5299 28.9382 59.2498 29.0809 59.9781C29.274 60.9743 29.4251 62.0792 29.5594 63.0586C29.7609 64.557 29.9708 66.1057 30.2562 66.3987C30.6508 66.8005 31.5575 66.9344 31.8765 66.9428L31.8513 67.4283H31.8597Z" fill="url(#paint61_linear_21_397)"/>
<path d="M28.6405 50.5624L28.1685 50.6815L30.6027 60.2737L31.0747 60.1546L28.6405 50.5624Z" fill="url(#paint62_linear_21_397)"/>
<path d="M30.6453 60.1537L29.4751 65.5368L29.951 65.6397L31.1212 60.2565L30.6453 60.1537Z" fill="url(#paint63_linear_21_397)"/>
<path d="M50.0943 87.1587C49.6997 87.1587 49.6577 87.0834 49.6241 86.9327C49.6074 86.8406 49.6241 86.6732 49.9096 86.5811L49.9935 86.849H50.1027C50.0859 86.7402 50.0019 86.6816 49.9516 86.6649C49.9851 86.6649 50.1866 86.6983 51.3536 86.5728C53.3684 86.3551 56.4243 84.6056 57.8179 83.1825C59.648 81.3074 65.5918 74.9538 65.9948 73.9326C66.423 72.836 68.2447 60.7818 68.4798 58.4881C68.6981 56.3535 68.1188 46.5929 67.8921 44.2323L67.8669 43.9644C67.657 41.7294 67.2961 37.9792 63.3839 32.538C59.3962 26.9881 49.8004 27.2141 49.6997 27.2225L49.6829 26.7369C50.0859 26.7286 59.6312 26.5025 63.7701 32.2534C67.7662 37.8034 68.1272 41.6289 68.3455 43.9226L68.3706 44.1905C68.6057 46.5594 69.1766 56.3786 68.9583 58.5383C68.7652 60.472 66.9099 72.9197 66.4481 74.1084C65.9612 75.3556 59.1275 82.5463 58.1705 83.5257C56.7181 85.0158 53.5867 86.8323 51.4123 87.0583C50.7659 87.1253 50.3545 87.1587 50.1027 87.1587H50.0943Z" fill="url(#paint64_linear_21_397)"/>
<path d="M54.8711 49.6902L49.4478 46.7687V33.3249L52.193 31.5335L49.4813 27.1136L49.8927 26.8625L52.596 31.274L57.7002 27.934L60.0173 31.6172L57.6918 39.7371L54.8795 49.6985L54.8711 49.6902ZM50.1026 46.5762L54.5688 48.9786L56.995 40.3984L50.1026 46.5762ZM49.9347 33.576V46.0739L57.1462 39.6031L52.4448 31.9269L49.9347 33.5676V33.576ZM52.8478 31.6758L57.3728 39.0674L59.4884 31.6842L57.5491 28.5953L52.8394 31.6758H52.8478Z" fill="url(#paint65_linear_21_397)"/>
<path d="M62.9112 31.3349L59.7554 31.4025L59.7658 31.8879L62.9217 31.8203L62.9112 31.3349Z" fill="url(#paint66_linear_21_397)"/>
<path d="M65.2326 34.9375L57.3372 39.4498L57.5793 39.8711L65.4747 35.3587L65.2326 34.9375Z" fill="url(#paint67_linear_21_397)"/>
<path d="M63.1521 31.5325L62.6724 31.6156L63.4846 36.2754L63.9643 36.1922L63.1521 31.5325Z" fill="url(#paint68_linear_21_397)"/>
<path d="M61.1249 51.4887L60.7996 51.8499L63.5727 54.3334L63.898 53.9722L61.1249 51.4887Z" fill="url(#paint69_linear_21_397)"/>
<path d="M63.6335 53.9287L60.054 55.7922L60.2793 56.2226L63.8589 54.3591L63.6335 53.9287Z" fill="url(#paint70_linear_21_397)"/>
<path d="M54.0665 55.1165L54.0149 55.5992L60.134 56.2491L60.1855 55.7664L54.0665 55.1165Z" fill="url(#paint71_linear_21_397)"/>
<path d="M60.9462 51.4314L55.1768 52.1102L55.2338 52.5924L61.0033 51.9135L60.9462 51.4314Z" fill="url(#paint72_linear_21_397)"/>
<path d="M54.9721 52.2633L53.8171 55.2823L54.2721 55.4554L55.4271 52.4364L54.9721 52.2633Z" fill="url(#paint73_linear_21_397)"/>
<path d="M63.9614 36.2003L63.479 36.2666L64.3791 42.7762L64.8615 42.7099L63.9614 36.2003Z" fill="url(#paint74_linear_21_397)"/>
<path d="M64.7429 42.5339L64.5105 42.9605L68.0589 44.8824L68.2913 44.4557L64.7429 42.5339Z" fill="url(#paint75_linear_21_397)"/>
<path d="M64.396 42.6606L60.7434 51.5807L61.1942 51.7642L64.8468 42.8441L64.396 42.6606Z" fill="url(#paint76_linear_21_397)"/>
<path d="M57.6852 39.5881L57.2178 39.724L60.7275 51.7306L61.195 51.5948L57.6852 39.5881Z" fill="url(#paint77_linear_21_397)"/>
<path d="M54.7988 49.1039L54.6279 49.5585L60.87 51.8906L61.0408 51.4359L54.7988 49.1039Z" fill="url(#paint78_linear_21_397)"/>
<path d="M54.9697 49.2888L54.4888 49.3647L54.9663 52.3743L55.4472 52.2984L54.9697 49.2888Z" fill="url(#paint79_linear_21_397)"/>
<path d="M57.5565 39.4277L57.3633 39.8734L64.5298 42.9627L64.723 42.517L57.5565 39.4277Z" fill="url(#paint80_linear_21_397)"/>
<path d="M49.8392 33.2606L49.5347 33.6395L57.3041 39.8482L57.6086 39.4694L49.8392 33.2606Z" fill="url(#paint81_linear_21_397)"/>
<path d="M64.3801 42.7222L63.4963 54.1229L63.9818 54.1603L64.8656 42.7596L64.3801 42.7222Z" fill="url(#paint82_linear_21_397)"/>
<path d="M68.3376 49.5874L63.5723 53.9675L63.9023 54.3245L68.6676 49.9444L68.3376 49.5874Z" fill="url(#paint83_linear_21_397)"/>
<path d="M63.9365 54.0116L63.5518 54.3091L68.264 60.3687L68.6487 60.0712L63.9365 54.0116Z" fill="url(#paint84_linear_21_397)"/>
<path d="M60.2688 55.803L60.0469 56.2352L68.3492 60.4733L68.5711 60.0411L60.2688 55.803Z" fill="url(#paint85_linear_21_397)"/>
<path d="M68.3631 60.0204L59.76 66.0851L60.0411 66.4816L68.6442 60.4168L68.3631 60.0204Z" fill="url(#paint86_linear_21_397)"/>
<path d="M59.9096 55.9986L59.6487 66.2749L60.1354 66.2872L60.3963 56.0109L59.9096 55.9986Z" fill="url(#paint87_linear_21_397)"/>
<path d="M53.8623 55.2115L51.821 57.6124L52.1925 57.9263L54.2337 55.5255L53.8623 55.2115Z" fill="url(#paint88_linear_21_397)"/>
<path d="M52.2464 57.7148L51.7681 57.8055L53.3949 66.3333L53.8732 66.2426L52.2464 57.7148Z" fill="url(#paint89_linear_21_397)"/>
<path d="M53.4984 66.08L49.5591 68.4495L49.8106 68.8652L53.7499 66.4957L53.4984 66.08Z" fill="url(#paint90_linear_21_397)"/>
<path d="M49.8547 62.4875L49.5251 62.8448L53.4678 66.4598L53.7974 66.1024L49.8547 62.4875Z" fill="url(#paint91_linear_21_397)"/>
<path d="M51.7791 57.6701L49.468 62.5807L49.9088 62.787L52.2199 57.8764L51.7791 57.6701Z" fill="url(#paint92_linear_21_397)"/>
<path d="M54.5395 49.1769L49.1738 55.5057L49.5457 55.8192L54.9114 49.4903L54.5395 49.1769Z" fill="url(#paint93_linear_21_397)"/>
<path d="M49.5069 55.4694L49.2034 55.849L51.8486 57.9523L52.1521 57.5727L49.5069 55.4694Z" fill="url(#paint94_linear_21_397)"/>
<path d="M54.4921 49.2654L51.7769 57.6979L52.2405 57.8464L54.9557 49.4138L54.4921 49.2654Z" fill="url(#paint95_linear_21_397)"/>
<path d="M53.628 66.0389L49.5327 66.1508L49.5461 66.6362L53.6414 66.5242L53.628 66.0389Z" fill="url(#paint96_linear_21_397)"/>
<path d="M51.7703 70.9369L51.522 71.3546L57.0604 74.6296L57.3088 74.212L51.7703 70.9369Z" fill="url(#paint97_linear_21_397)"/>
<path d="M51.5225 70.9317L49.5681 72.06L49.8121 72.4802L51.7665 71.3519L51.5225 70.9317Z" fill="url(#paint98_linear_21_397)"/>
<path d="M57.0761 74.1955L53.824 75.8886L54.0493 76.319L57.3014 74.6259L57.0761 74.1955Z" fill="url(#paint99_linear_21_397)"/>
<path d="M53.9289 75.8708L49.6824 75.9824L49.6952 76.4678L53.9417 76.3562L53.9289 75.8708Z" fill="url(#paint100_linear_21_397)"/>
<path d="M49.9204 78.8455L49.4617 79.0082L52.2005 86.6817L52.6592 86.519L49.9204 78.8455Z" fill="url(#paint101_linear_21_397)"/>
<path d="M53.8078 75.9103L49.5608 78.7335L49.8309 79.1375L54.0779 76.3143L53.8078 75.9103Z" fill="url(#paint102_linear_21_397)"/>
<path d="M60.3891 55.9319L59.9275 56.0864L65.9875 74.0933L66.4491 73.9389L60.3891 55.9319Z" fill="url(#paint103_linear_21_397)"/>
<path d="M60.0975 66.1262L59.72 66.4329L66.0407 74.1687L66.4182 73.8621L60.0975 66.1262Z" fill="url(#paint104_linear_21_397)"/>
<path d="M66.2038 73.7788L57.1709 74.1752L57.1923 74.6603L66.2252 74.2639L66.2038 73.7788Z" fill="url(#paint105_linear_21_397)"/>
<path d="M57.4228 74.3772L56.9409 74.4471L58.1787 82.9381L58.6605 82.8683L57.4228 74.3772Z" fill="url(#paint106_linear_21_397)"/>
<path d="M54.143 75.9688L53.7363 76.2358L58.2282 83.0387L58.6349 82.7717L54.143 75.9688Z" fill="url(#paint107_linear_21_397)"/>
<path d="M53.6955 76.0775L52.1895 86.5767L52.6715 86.6454L54.1776 76.1462L53.6955 76.0775Z" fill="url(#paint108_linear_21_397)"/>
<path d="M59.7864 66.0774L51.5273 70.9322L51.7746 71.3504L60.0336 66.4957L59.7864 66.0774Z" fill="url(#paint109_linear_21_397)"/>
<path d="M53.8608 66.1931L53.4138 66.3858L56.9818 74.615L57.4287 74.4224L53.8608 66.1931Z" fill="url(#paint110_linear_21_397)"/>
<path d="M59.9496 55.8897L53.4207 66.1638L53.832 66.4237L60.3609 56.1495L59.9496 55.8897Z" fill="url(#paint111_linear_21_397)"/>
<path d="M59.8999 66.0471H53.6287V66.5326H59.8999V66.0471Z" fill="url(#paint112_linear_21_397)"/>
<path d="M59.6677 66.208L56.947 74.3393L57.4089 74.493L60.1296 66.3617L59.6677 66.208Z" fill="url(#paint113_linear_21_397)"/>
<path d="M67.4808 67.4283L67.4556 66.9428C67.7746 66.926 68.6813 66.8005 69.0758 66.3987C69.3697 66.0973 69.5712 64.5487 69.7726 63.0587C69.907 62.0792 70.0497 60.9743 70.2512 59.9781C70.3939 59.2582 70.5702 58.5299 70.7465 57.8268C71.2082 55.9684 71.6868 54.0431 71.4853 52.0341C71.4265 51.4062 71.225 51.0212 70.8976 50.8789C70.2428 50.5942 69.1094 51.289 68.7316 51.5737L68.4378 51.1886C68.505 51.1384 70.0413 49.9748 71.0907 50.4352C71.5944 50.6528 71.8882 51.1718 71.9638 51.9838C72.1653 54.0849 71.6784 56.0438 71.2082 57.944C71.0319 58.6388 70.8556 59.3587 70.7129 60.0702C70.5198 61.0496 70.3771 62.1044 70.2428 63.1256C69.9657 65.1765 69.7978 66.3485 69.4117 66.7419C68.7988 67.3697 67.5227 67.4367 67.464 67.4367L67.4808 67.4283Z" fill="url(#paint114_linear_21_397)"/>
<path d="M70.7096 50.5724L68.2771 60.165L68.7492 60.284L71.1817 50.6914L70.7096 50.5724Z" fill="url(#paint115_linear_21_397)"/>
<path d="M68.6951 60.1537L68.2192 60.2567L69.3904 65.6396L69.8662 65.5366L68.6951 60.1537Z" fill="url(#paint116_linear_21_397)"/>
<path d="M41.8837 40.1473C41.6151 40.1473 41.3884 39.9296 41.3884 39.6534C41.3884 39.3771 41.6067 39.1595 41.8837 39.1595C42.1608 39.1595 42.3791 39.3771 42.3791 39.6534C42.3791 39.9296 42.1608 40.1473 41.8837 40.1473ZM41.8837 39.645H41.8921C41.8921 39.645 41.8921 39.645 41.8837 39.645Z" fill="url(#paint117_linear_21_397)"/>
<path d="M60.966 52.1597C60.6974 52.1597 60.4707 51.942 60.4707 51.6658C60.4707 51.3895 60.689 51.1719 60.966 51.1719C61.2431 51.1719 61.4613 51.3895 61.4613 51.6658C61.4613 51.942 61.2431 52.1597 60.966 52.1597ZM60.966 51.6574H60.9744C60.9744 51.6574 60.9744 51.6574 60.966 51.6574Z" fill="url(#paint118_linear_21_397)"/>
<path d="M64.6179 43.2362C64.3492 43.2362 64.1226 43.0185 64.1226 42.7423C64.1226 42.4661 64.3408 42.2484 64.6179 42.2484C64.8949 42.2484 65.1132 42.4661 65.1132 42.7423C65.1132 43.0185 64.8949 43.2362 64.6179 43.2362ZM64.6179 42.7339H64.6263C64.6263 42.7339 64.6263 42.7339 64.6179 42.7339Z" fill="url(#paint119_linear_21_397)"/>
<path d="M57.1796 74.912C56.911 74.912 56.6843 74.6943 56.6843 74.4181C56.6843 74.1418 56.9026 73.9242 57.1796 73.9242C57.4567 73.9242 57.675 74.1418 57.675 74.4181C57.675 74.6943 57.4567 74.912 57.1796 74.912ZM57.1796 74.4013H57.188C57.188 74.4013 57.188 74.4013 57.1796 74.4013Z" fill="url(#paint120_linear_21_397)"/>
<path d="M44.612 49.8241C44.3434 49.8241 44.1167 49.6065 44.1167 49.3303C44.1167 49.054 44.335 48.8364 44.612 48.8364C44.8891 48.8364 45.1073 49.054 45.1073 49.3303C45.1073 49.6065 44.8891 49.8241 44.612 49.8241ZM44.612 49.3219H44.6204C44.6204 49.3219 44.6204 49.3219 44.612 49.3219Z" fill="url(#paint121_linear_21_397)"/>
<path d="M35.5957 54.6458C35.327 54.6458 35.1003 54.4282 35.1003 54.1519C35.1003 53.8757 35.3186 53.658 35.5957 53.658C35.8727 53.658 36.091 53.8757 36.091 54.1519C36.091 54.4282 35.8727 54.6458 35.5957 54.6458ZM35.5957 54.1352H35.6041C35.6041 54.1352 35.6041 54.1352 35.5957 54.1352Z" fill="url(#paint122_linear_21_397)"/>
<path d="M62.9052 64.6575C62.6366 64.6575 62.4099 64.4399 62.4099 64.1636C62.4099 63.8874 62.6282 63.6697 62.9052 63.6697C63.1823 63.6697 63.4005 63.8874 63.4005 64.1636C63.4005 64.4399 63.1823 64.6575 62.9052 64.6575ZM62.9052 64.1553H62.9136C62.9136 64.1553 62.9136 64.1553 62.9052 64.1553Z" fill="url(#paint123_linear_21_397)"/>
<path d="M57.4569 40.3314C57.0875 40.3314 56.7769 40.0301 56.7769 39.6534C56.7769 39.2767 57.0791 38.9753 57.4569 38.9753C57.8347 38.9753 58.1369 39.2767 58.1369 39.6534C58.1369 40.0301 57.8347 40.3314 57.4569 40.3314ZM57.4569 39.4609C57.3477 39.4609 57.2638 39.5446 57.2638 39.6534C57.2638 39.7622 57.3477 39.8459 57.4569 39.8459C57.566 39.8459 57.65 39.7622 57.65 39.6534C57.65 39.5446 57.566 39.4609 57.4569 39.4609Z" fill="url(#paint124_linear_21_397)"/>
<path d="M49.6912 79.516C49.3219 79.516 49.0112 79.2147 49.0112 78.838C49.0112 78.4613 49.3135 78.1599 49.6912 78.1599C50.069 78.1599 50.3713 78.4613 50.3713 78.838C50.3713 79.2147 50.069 79.516 49.6912 79.516ZM49.6912 78.6538C49.5821 78.6538 49.4982 78.7375 49.4982 78.8463C49.4982 78.9552 49.5821 79.0389 49.6912 79.0389C49.8004 79.0389 49.8843 78.9552 49.8843 78.8463C49.8843 78.7375 49.8004 78.6538 49.6912 78.6538Z" fill="url(#paint125_linear_21_397)"/>
<path d="M49.6492 47.1203C49.2799 47.1203 48.9692 46.819 48.9692 46.4423C48.9692 46.0656 49.2715 45.7642 49.6492 45.7642C50.027 45.7642 50.3293 46.0656 50.3293 46.4423C50.3293 46.819 50.027 47.1203 49.6492 47.1203ZM49.6492 46.2581C49.5401 46.2581 49.4562 46.3418 49.4562 46.4506C49.4562 46.5595 49.5401 46.6432 49.6492 46.6432C49.7584 46.6432 49.8423 46.5595 49.8423 46.4506C49.8423 46.3418 49.7584 46.2581 49.6492 46.2581Z" fill="url(#paint126_linear_21_397)"/>
<path d="M39.4742 67.0767C39.1048 67.0767 38.7942 66.7754 38.7942 66.3987C38.7942 66.022 39.0964 65.7206 39.4742 65.7206C39.852 65.7206 40.1542 66.022 40.1542 66.3987C40.1542 66.7754 39.852 67.0767 39.4742 67.0767ZM39.4742 66.2062C39.3651 66.2062 39.2811 66.2899 39.2811 66.3987C39.2811 66.5075 39.3651 66.5912 39.4742 66.5912C39.5833 66.5912 39.6673 66.5075 39.6673 66.3987C39.6673 66.2899 39.5833 66.2062 39.4742 66.2062Z" fill="url(#paint127_linear_21_397)"/>
</g>
<defs>
<linearGradient id="paint0_linear_21_397" x1="7.21997" y1="56.4958" x2="90.9202" y2="56.4958" gradientUnits="userSpaceOnUse">
<stop stop-color="#00AECB"/>
<stop offset="1" stop-color="#A54A95"/>
</linearGradient>
<linearGradient id="paint1_linear_21_397" x1="5.99414" y1="56.4958" x2="92.1457" y2="56.4958" gradientUnits="userSpaceOnUse">
<stop stop-color="#00AECB"/>
<stop offset="1" stop-color="#A54A95"/>
</linearGradient>
<linearGradient id="paint2_linear_21_397" x1="4.85254" y1="56.4958" x2="93.2876" y2="56.4958" gradientUnits="userSpaceOnUse">
<stop stop-color="#00AECB"/>
<stop offset="1" stop-color="#A54A95"/>
</linearGradient>
<linearGradient id="paint3_linear_21_397" x1="3.80298" y1="56.4958" x2="94.3369" y2="56.4958" gradientUnits="userSpaceOnUse">
<stop stop-color="#00AECB"/>
<stop offset="1" stop-color="#A54A95"/>
</linearGradient>
<linearGradient id="paint4_linear_21_397" x1="2.86279" y1="56.4958" x2="95.2772" y2="56.4958" gradientUnits="userSpaceOnUse">
<stop stop-color="#00AECB"/>
<stop offset="1" stop-color="#A54A95"/>
</linearGradient>
<linearGradient id="paint5_linear_21_397" x1="2.03174" y1="56.4958" x2="96.1084" y2="56.4958" gradientUnits="userSpaceOnUse">
<stop stop-color="#00AECB"/>
<stop offset="1" stop-color="#A54A95"/>
</linearGradient>
<linearGradient id="paint6_linear_21_397" x1="1.33472" y1="56.4958" x2="96.805" y2="56.4958" gradientUnits="userSpaceOnUse">
<stop stop-color="#00AECB"/>
<stop offset="1" stop-color="#A54A95"/>
</linearGradient>
<linearGradient id="paint7_linear_21_397" x1="0.772461" y1="56.4958" x2="97.3677" y2="56.4958" gradientUnits="userSpaceOnUse">
<stop stop-color="#00AECB"/>
<stop offset="1" stop-color="#A54A95"/>
</linearGradient>
<linearGradient id="paint8_linear_21_397" x1="0.352539" y1="56.4958" x2="97.7873" y2="56.4958" gradientUnits="userSpaceOnUse">
<stop stop-color="#00AECB"/>
<stop offset="1" stop-color="#A54A95"/>
</linearGradient>
<linearGradient id="paint9_linear_21_397" x1="0.0922852" y1="56.4958" x2="98.0475" y2="56.4958" gradientUnits="userSpaceOnUse">
<stop stop-color="#00AECB"/>
<stop offset="1" stop-color="#A54A95"/>
</linearGradient>
<linearGradient id="paint10_linear_21_397" x1="0" y1="56.4958" x2="98.1399" y2="56.4958" gradientUnits="userSpaceOnUse">
<stop stop-color="#00AECB"/>
<stop offset="1" stop-color="#A54A95"/>
</linearGradient>
<linearGradient id="paint11_linear_21_397" x1="30.3318" y1="56.9478" x2="49.7163" y2="56.9478" gradientUnits="userSpaceOnUse">
<stop stop-color="#00AECB"/>
<stop offset="1" stop-color="#A54A95"/>
</linearGradient>
<linearGradient id="paint12_linear_21_397" x1="39.3232" y1="38.2722" x2="49.8928" y2="38.2722" gradientUnits="userSpaceOnUse">
<stop stop-color="#00AECB"/>
<stop offset="1" stop-color="#A54A95"/>
</linearGradient>
<linearGradient id="paint13_linear_21_397" x1="36.4126" y1="31.6093" x2="39.586" y2="31.6093" gradientUnits="userSpaceOnUse">
<stop stop-color="#00AECB"/>
<stop offset="1" stop-color="#A54A95"/>
</linearGradient>
<linearGradient id="paint14_linear_21_397" x1="33.8655" y1="37.4066" x2="42.0004" y2="37.4066" gradientUnits="userSpaceOnUse">
<stop stop-color="#00AECB"/>
<stop offset="1" stop-color="#A54A95"/>
</linearGradient>
<linearGradient id="paint15_linear_21_397" x1="35.3834" y1="33.907" x2="36.6679" y2="33.907" gradientUnits="userSpaceOnUse">
<stop stop-color="#00AECB"/>
<stop offset="1" stop-color="#A54A95"/>
</linearGradient>
<linearGradient id="paint16_linear_21_397" x1="35.4359" y1="52.9069" x2="38.5338" y2="52.9069" gradientUnits="userSpaceOnUse">
<stop stop-color="#00AECB"/>
<stop offset="1" stop-color="#A54A95"/>
</linearGradient>
<linearGradient id="paint17_linear_21_397" x1="35.4894" y1="55.0764" x2="39.2925" y2="55.0764" gradientUnits="userSpaceOnUse">
<stop stop-color="#00AECB"/>
<stop offset="1" stop-color="#A54A95"/>
</linearGradient>
<linearGradient id="paint18_linear_21_397" x1="39.1534" y1="55.6813" x2="45.3155" y2="55.6813" gradientUnits="userSpaceOnUse">
<stop stop-color="#00AECB"/>
<stop offset="1" stop-color="#A54A95"/>
</linearGradient>
<linearGradient id="paint19_linear_21_397" x1="38.3373" y1="52.0005" x2="44.1635" y2="52.0005" gradientUnits="userSpaceOnUse">
<stop stop-color="#00AECB"/>
<stop offset="1" stop-color="#A54A95"/>
</linearGradient>
<linearGradient id="paint20_linear_21_397" x1="43.9197" y1="53.8552" x2="45.5232" y2="53.8552" gradientUnits="userSpaceOnUse">
<stop stop-color="#00AECB"/>
<stop offset="1" stop-color="#A54A95"/>
</linearGradient>
<linearGradient id="paint21_linear_21_397" x1="34.4815" y1="39.4972" x2="35.8583" y2="39.4972" gradientUnits="userSpaceOnUse">
<stop stop-color="#00AECB"/>
<stop offset="1" stop-color="#A54A95"/>
</linearGradient>
<linearGradient id="paint22_linear_21_397" x1="31.0511" y1="43.7039" x2="34.8289" y2="43.7039" gradientUnits="userSpaceOnUse">
<stop stop-color="#00AECB"/>
<stop offset="1" stop-color="#A54A95"/>
</linearGradient>
<linearGradient id="paint23_linear_21_397" x1="34.4811" y1="47.2043" x2="38.5864" y2="47.2043" gradientUnits="userSpaceOnUse">
<stop stop-color="#00AECB"/>
<stop offset="1" stop-color="#A54A95"/>
</linearGradient>
<linearGradient id="paint24_linear_21_397" x1="38.1453" y1="45.6662" x2="42.1163" y2="45.6662" gradientUnits="userSpaceOnUse">
<stop stop-color="#00AECB"/>
<stop offset="1" stop-color="#A54A95"/>
</linearGradient>
<linearGradient id="paint25_linear_21_397" x1="38.2876" y1="50.504" x2="44.7015" y2="50.504" gradientUnits="userSpaceOnUse">
<stop stop-color="#00AECB"/>
<stop offset="1" stop-color="#A54A95"/>
</linearGradient>
<linearGradient id="paint26_linear_21_397" x1="43.8934" y1="50.8396" x2="44.8504" y2="50.8396" gradientUnits="userSpaceOnUse">
<stop stop-color="#00AECB"/>
<stop offset="1" stop-color="#A54A95"/>
</linearGradient>
<linearGradient id="paint27_linear_21_397" x1="34.6238" y1="41.2011" x2="41.978" y2="41.2011" gradientUnits="userSpaceOnUse">
<stop stop-color="#00AECB"/>
<stop offset="1" stop-color="#A54A95"/>
</linearGradient>
<linearGradient id="paint28_linear_21_397" x1="41.7435" y1="36.5617" x2="49.8113" y2="36.5617" gradientUnits="userSpaceOnUse">
<stop stop-color="#00AECB"/>
<stop offset="1" stop-color="#A54A95"/>
</linearGradient>
<linearGradient id="paint29_linear_21_397" x1="34.4725" y1="48.4493" x2="35.8409" y2="48.4493" gradientUnits="userSpaceOnUse">
<stop stop-color="#00AECB"/>
<stop offset="1" stop-color="#A54A95"/>
</linearGradient>
<linearGradient id="paint30_linear_21_397" x1="30.6706" y1="51.9585" x2="35.7665" y2="51.9585" gradientUnits="userSpaceOnUse">
<stop stop-color="#00AECB"/>
<stop offset="1" stop-color="#A54A95"/>
</linearGradient>
<linearGradient id="paint31_linear_21_397" x1="30.6929" y1="57.1871" x2="35.7888" y2="57.1871" gradientUnits="userSpaceOnUse">
<stop stop-color="#00AECB"/>
<stop offset="1" stop-color="#A54A95"/>
</linearGradient>
<linearGradient id="paint32_linear_21_397" x1="30.7668" y1="58.129" x2="39.2879" y2="58.129" gradientUnits="userSpaceOnUse">
<stop stop-color="#00AECB"/>
<stop offset="1" stop-color="#A54A95"/>
</linearGradient>
<linearGradient id="paint33_linear_21_397" x1="30.6993" y1="63.2609" x2="39.5814" y2="63.2608" gradientUnits="userSpaceOnUse">
<stop stop-color="#00AECB"/>
<stop offset="1" stop-color="#A54A95"/>
</linearGradient>
<linearGradient id="paint34_linear_21_397" x1="38.9377" y1="61.1454" x2="39.6765" y2="61.1454" gradientUnits="userSpaceOnUse">
<stop stop-color="#00AECB"/>
<stop offset="1" stop-color="#A54A95"/>
</linearGradient>
<linearGradient id="paint35_linear_21_397" x1="45.1056" y1="56.5565" x2="47.515" y2="56.5565" gradientUnits="userSpaceOnUse">
<stop stop-color="#00AECB"/>
<stop offset="1" stop-color="#A54A95"/>
</linearGradient>
<linearGradient id="paint36_linear_21_397" x1="45.4629" y1="62.0173" x2="47.5701" y2="62.0173" gradientUnits="userSpaceOnUse">
<stop stop-color="#00AECB"/>
<stop offset="1" stop-color="#A54A95"/>
</linearGradient>
<linearGradient id="paint37_linear_21_397" x1="45.5816" y1="67.4747" x2="49.7708" y2="67.4747" gradientUnits="userSpaceOnUse">
<stop stop-color="#00AECB"/>
<stop offset="1" stop-color="#A54A95"/>
</linearGradient>
<linearGradient id="paint38_linear_21_397" x1="45.5334" y1="64.4818" x2="49.7981" y2="64.4818" gradientUnits="userSpaceOnUse">
<stop stop-color="#00AECB"/>
<stop offset="1" stop-color="#A54A95"/>
</linearGradient>
<linearGradient id="paint39_linear_21_397" x1="47.1138" y1="60.2269" x2="49.8675" y2="60.2269" gradientUnits="userSpaceOnUse">
<stop stop-color="#00AECB"/>
<stop offset="1" stop-color="#A54A95"/>
</linearGradient>
<linearGradient id="paint40_linear_21_397" x1="44.4316" y1="52.4953" x2="50.1655" y2="52.4953" gradientUnits="userSpaceOnUse">
<stop stop-color="#00AECB"/>
<stop offset="1" stop-color="#A54A95"/>
</linearGradient>
<linearGradient id="paint41_linear_21_397" x1="47.1846" y1="56.7119" x2="50.1314" y2="56.7119" gradientUnits="userSpaceOnUse">
<stop stop-color="#00AECB"/>
<stop offset="1" stop-color="#A54A95"/>
</linearGradient>
<linearGradient id="paint42_linear_21_397" x1="44.3895" y1="53.5492" x2="47.5712" y2="53.5492" gradientUnits="userSpaceOnUse">
<stop stop-color="#00AECB"/>
<stop offset="1" stop-color="#A54A95"/>
</linearGradient>
<linearGradient id="paint43_linear_21_397" x1="45.7069" y1="66.339" x2="49.5435" y2="66.339" gradientUnits="userSpaceOnUse">
<stop stop-color="#00AECB"/>
<stop offset="1" stop-color="#A54A95"/>
</linearGradient>
<linearGradient id="paint44_linear_21_397" x1="42.0361" y1="72.7787" x2="47.8204" y2="72.7787" gradientUnits="userSpaceOnUse">
<stop stop-color="#00AECB"/>
<stop offset="1" stop-color="#A54A95"/>
</linearGradient>
<linearGradient id="paint45_linear_21_397" x1="47.5663" y1="71.7039" x2="49.7659" y2="71.7039" gradientUnits="userSpaceOnUse">
<stop stop-color="#00AECB"/>
<stop offset="1" stop-color="#A54A95"/>
</linearGradient>
<linearGradient id="paint46_linear_21_397" x1="42.039" y1="75.2645" x2="45.5146" y2="75.2645" gradientUnits="userSpaceOnUse">
<stop stop-color="#00AECB"/>
<stop offset="1" stop-color="#A54A95"/>
</linearGradient>
<linearGradient id="paint47_linear_21_397" x1="45.4083" y1="76.164" x2="49.6647" y2="76.164" gradientUnits="userSpaceOnUse">
<stop stop-color="#00AECB"/>
<stop offset="1" stop-color="#A54A95"/>
</linearGradient>
<linearGradient id="paint48_linear_21_397" x1="46.6844" y1="82.7779" x2="49.8746" y2="82.7779" gradientUnits="userSpaceOnUse">
<stop stop-color="#00AECB"/>
<stop offset="1" stop-color="#A54A95"/>
</linearGradient>
<linearGradient id="paint49_linear_21_397" x1="45.2714" y1="77.5203" x2="49.7881" y2="77.5203" gradientUnits="userSpaceOnUse">
<stop stop-color="#00AECB"/>
<stop offset="1" stop-color="#A54A95"/>
</linearGradient>
<linearGradient id="paint50_linear_21_397" x1="32.8819" y1="65.0232" x2="39.405" y2="65.0232" gradientUnits="userSpaceOnUse">
<stop stop-color="#00AECB"/>
<stop offset="1" stop-color="#A54A95"/>
</linearGradient>
<linearGradient id="paint51_linear_21_397" x1="32.9326" y1="70.1599" x2="39.632" y2="70.1599" gradientUnits="userSpaceOnUse">
<stop stop-color="#00AECB"/>
<stop offset="1" stop-color="#A54A95"/>
</linearGradient>
<linearGradient id="paint52_linear_21_397" x1="33.1004" y1="74.2151" x2="42.1589" y2="74.2151" gradientUnits="userSpaceOnUse">
<stop stop-color="#00AECB"/>
<stop offset="1" stop-color="#A54A95"/>
</linearGradient>
<linearGradient id="paint53_linear_21_397" x1="40.6757" y1="78.6632" x2="42.3967" y2="78.6632" gradientUnits="userSpaceOnUse">
<stop stop-color="#00AECB"/>
<stop offset="1" stop-color="#A54A95"/>
</linearGradient>
<linearGradient id="paint54_linear_21_397" x1="40.7117" y1="79.5057" x2="45.6061" y2="79.5057" gradientUnits="userSpaceOnUse">
<stop stop-color="#00AECB"/>
<stop offset="1" stop-color="#A54A95"/>
</linearGradient>
<linearGradient id="paint55_linear_21_397" x1="45.1688" y1="81.3596" x2="47.15" y2="81.3596" gradientUnits="userSpaceOnUse">
<stop stop-color="#00AECB"/>
<stop offset="1" stop-color="#A54A95"/>
</linearGradient>
<linearGradient id="paint56_linear_21_397" x1="39.3201" y1="68.7199" x2="47.8161" y2="68.7199" gradientUnits="userSpaceOnUse">
<stop stop-color="#00AECB"/>
<stop offset="1" stop-color="#A54A95"/>
</linearGradient>
<linearGradient id="paint57_linear_21_397" x1="41.9165" y1="70.4042" x2="45.9295" y2="70.4042" gradientUnits="userSpaceOnUse">
<stop stop-color="#00AECB"/>
<stop offset="1" stop-color="#A54A95"/>
</linearGradient>
<linearGradient id="paint58_linear_21_397" x1="38.9662" y1="61.1517" x2="45.909" y2="61.1516" gradientUnits="userSpaceOnUse">
<stop stop-color="#00AECB"/>
<stop offset="1" stop-color="#A54A95"/>
</linearGradient>
<linearGradient id="paint59_linear_21_397" x1="39.4324" y1="66.2899" x2="45.712" y2="66.2899" gradientUnits="userSpaceOnUse">
<stop stop-color="#00AECB"/>
<stop offset="1" stop-color="#A54A95"/>
</linearGradient>
<linearGradient id="paint60_linear_21_397" x1="39.2043" y1="70.3494" x2="42.3861" y2="70.3494" gradientUnits="userSpaceOnUse">
<stop stop-color="#00AECB"/>
<stop offset="1" stop-color="#A54A95"/>
</linearGradient>
<linearGradient id="paint61_linear_21_397" x1="27.3179" y1="58.8815" x2="31.8765" y2="58.8815" gradientUnits="userSpaceOnUse">
<stop stop-color="#00AECB"/>
<stop offset="1" stop-color="#A54A95"/>
</linearGradient>
<linearGradient id="paint62_linear_21_397" x1="28.1616" y1="55.4212" x2="31.0663" y2="55.4212" gradientUnits="userSpaceOnUse">
<stop stop-color="#00AECB"/>
<stop offset="1" stop-color="#A54A95"/>
</linearGradient>
<linearGradient id="paint63_linear_21_397" x1="29.4741" y1="62.896" x2="31.1196" y2="62.896" gradientUnits="userSpaceOnUse">
<stop stop-color="#00AECB"/>
<stop offset="1" stop-color="#A54A95"/>
</linearGradient>
<linearGradient id="paint64_linear_21_397" x1="49.6158" y1="56.9478" x2="69.0087" y2="56.9478" gradientUnits="userSpaceOnUse">
<stop stop-color="#00AECB"/>
<stop offset="1" stop-color="#A54A95"/>
</linearGradient>
<linearGradient id="paint65_linear_21_397" x1="49.4478" y1="38.2721" x2="60.0173" y2="38.2721" gradientUnits="userSpaceOnUse">
<stop stop-color="#00AECB"/>
<stop offset="1" stop-color="#A54A95"/>
</linearGradient>
<linearGradient id="paint66_linear_21_397" x1="59.754" y1="31.611" x2="62.919" y2="31.611" gradientUnits="userSpaceOnUse">
<stop stop-color="#00AECB"/>
<stop offset="1" stop-color="#A54A95"/>
</linearGradient>
<linearGradient id="paint67_linear_21_397" x1="57.3386" y1="37.4016" x2="65.4735" y2="37.4016" gradientUnits="userSpaceOnUse">
<stop stop-color="#00AECB"/>
<stop offset="1" stop-color="#A54A95"/>
</linearGradient>
<linearGradient id="paint68_linear_21_397" x1="62.6728" y1="33.9053" x2="63.9656" y2="33.9053" gradientUnits="userSpaceOnUse">
<stop stop-color="#00AECB"/>
<stop offset="1" stop-color="#A54A95"/>
</linearGradient>
<linearGradient id="paint69_linear_21_397" x1="60.8073" y1="52.9021" x2="63.9051" y2="52.9021" gradientUnits="userSpaceOnUse">
<stop stop-color="#00AECB"/>
<stop offset="1" stop-color="#A54A95"/>
</linearGradient>
<linearGradient id="paint70_linear_21_397" x1="60.0446" y1="55.0793" x2="63.856" y2="55.0793" gradientUnits="userSpaceOnUse">
<stop stop-color="#00AECB"/>
<stop offset="1" stop-color="#A54A95"/>
</linearGradient>
<linearGradient id="paint71_linear_21_397" x1="54.0173" y1="55.6846" x2="60.1878" y2="55.6846" gradientUnits="userSpaceOnUse">
<stop stop-color="#00AECB"/>
<stop offset="1" stop-color="#A54A95"/>
</linearGradient>
<linearGradient id="paint72_linear_21_397" x1="55.1787" y1="52.0036" x2="60.9966" y2="52.0036" gradientUnits="userSpaceOnUse">
<stop stop-color="#00AECB"/>
<stop offset="1" stop-color="#A54A95"/>
</linearGradient>
<linearGradient id="paint73_linear_21_397" x1="53.8242" y1="53.851" x2="55.4361" y2="53.851" gradientUnits="userSpaceOnUse">
<stop stop-color="#00AECB"/>
<stop offset="1" stop-color="#A54A95"/>
</linearGradient>
<linearGradient id="paint74_linear_21_397" x1="63.482" y1="39.4908" x2="64.8589" y2="39.4908" gradientUnits="userSpaceOnUse">
<stop stop-color="#00AECB"/>
<stop offset="1" stop-color="#A54A95"/>
</linearGradient>
<linearGradient id="paint75_linear_21_397" x1="64.5087" y1="43.7045" x2="68.2866" y2="43.7045" gradientUnits="userSpaceOnUse">
<stop stop-color="#00AECB"/>
<stop offset="1" stop-color="#A54A95"/>
</linearGradient>
<linearGradient id="paint76_linear_21_397" x1="60.747" y1="47.2038" x2="64.8523" y2="47.2038" gradientUnits="userSpaceOnUse">
<stop stop-color="#00AECB"/>
<stop offset="1" stop-color="#A54A95"/>
</linearGradient>
<linearGradient id="paint77_linear_21_397" x1="57.2245" y1="45.6633" x2="61.2039" y2="45.6633" gradientUnits="userSpaceOnUse">
<stop stop-color="#00AECB"/>
<stop offset="1" stop-color="#A54A95"/>
</linearGradient>
<linearGradient id="paint78_linear_21_397" x1="54.6301" y1="50.5075" x2="61.044" y2="50.5075" gradientUnits="userSpaceOnUse">
<stop stop-color="#00AECB"/>
<stop offset="1" stop-color="#A54A95"/>
</linearGradient>
<linearGradient id="paint79_linear_21_397" x1="54.4867" y1="50.8358" x2="55.4437" y2="50.8358" gradientUnits="userSpaceOnUse">
<stop stop-color="#00AECB"/>
<stop offset="1" stop-color="#A54A95"/>
</linearGradient>
<linearGradient id="paint80_linear_21_397" x1="57.3573" y1="41.1999" x2="64.7199" y2="41.1999" gradientUnits="userSpaceOnUse">
<stop stop-color="#00AECB"/>
<stop offset="1" stop-color="#A54A95"/>
</linearGradient>
<linearGradient id="paint81_linear_21_397" x1="49.5365" y1="36.5513" x2="57.6042" y2="36.5513" gradientUnits="userSpaceOnUse">
<stop stop-color="#00AECB"/>
<stop offset="1" stop-color="#A54A95"/>
</linearGradient>
<linearGradient id="paint82_linear_21_397" x1="63.4943" y1="48.4542" x2="64.8543" y2="48.4542" gradientUnits="userSpaceOnUse">
<stop stop-color="#00AECB"/>
<stop offset="1" stop-color="#A54A95"/>
</linearGradient>
<linearGradient id="paint83_linear_21_397" x1="63.5701" y1="51.9612" x2="68.666" y2="51.9612" gradientUnits="userSpaceOnUse">
<stop stop-color="#00AECB"/>
<stop offset="1" stop-color="#A54A95"/>
</linearGradient>
<linearGradient id="paint84_linear_21_397" x1="63.5605" y1="57.1829" x2="68.6564" y2="57.1829" gradientUnits="userSpaceOnUse">
<stop stop-color="#00AECB"/>
<stop offset="1" stop-color="#A54A95"/>
</linearGradient>
<linearGradient id="paint85_linear_21_397" x1="60.0496" y1="58.1312" x2="68.5708" y2="58.1312" gradientUnits="userSpaceOnUse">
<stop stop-color="#00AECB"/>
<stop offset="1" stop-color="#A54A95"/>
</linearGradient>
<linearGradient id="paint86_linear_21_397" x1="59.7633" y1="63.2481" x2="68.6454" y2="63.2481" gradientUnits="userSpaceOnUse">
<stop stop-color="#00AECB"/>
<stop offset="1" stop-color="#A54A95"/>
</linearGradient>
<linearGradient id="paint87_linear_21_397" x1="59.6409" y1="61.1487" x2="60.388" y2="61.1487" gradientUnits="userSpaceOnUse">
<stop stop-color="#00AECB"/>
<stop offset="1" stop-color="#A54A95"/>
</linearGradient>
<linearGradient id="paint88_linear_21_397" x1="51.8206" y1="56.5688" x2="54.23" y2="56.5688" gradientUnits="userSpaceOnUse">
<stop stop-color="#00AECB"/>
<stop offset="1" stop-color="#A54A95"/>
</linearGradient>
<linearGradient id="paint89_linear_21_397" x1="51.768" y1="62.021" x2="53.8668" y2="62.021" gradientUnits="userSpaceOnUse">
<stop stop-color="#00AECB"/>
<stop offset="1" stop-color="#A54A95"/>
</linearGradient>
<linearGradient id="paint90_linear_21_397" x1="49.5583" y1="67.4735" x2="53.7475" y2="67.4735" gradientUnits="userSpaceOnUse">
<stop stop-color="#00AECB"/>
<stop offset="1" stop-color="#A54A95"/>
</linearGradient>
<linearGradient id="paint91_linear_21_397" x1="49.5162" y1="64.4773" x2="53.7894" y2="64.4773" gradientUnits="userSpaceOnUse">
<stop stop-color="#00AECB"/>
<stop offset="1" stop-color="#A54A95"/>
</linearGradient>
<linearGradient id="paint92_linear_21_397" x1="49.4732" y1="60.2251" x2="52.2184" y2="60.2251" gradientUnits="userSpaceOnUse">
<stop stop-color="#00AECB"/>
<stop offset="1" stop-color="#A54A95"/>
</linearGradient>
<linearGradient id="paint93_linear_21_397" x1="49.1803" y1="52.495" x2="54.9142" y2="52.495" gradientUnits="userSpaceOnUse">
<stop stop-color="#00AECB"/>
<stop offset="1" stop-color="#A54A95"/>
</linearGradient>
<linearGradient id="paint94_linear_21_397" x1="49.2082" y1="56.7078" x2="52.1549" y2="56.7078" gradientUnits="userSpaceOnUse">
<stop stop-color="#00AECB"/>
<stop offset="1" stop-color="#A54A95"/>
</linearGradient>
<linearGradient id="paint95_linear_21_397" x1="51.7743" y1="53.5522" x2="54.9561" y2="53.5522" gradientUnits="userSpaceOnUse">
<stop stop-color="#00AECB"/>
<stop offset="1" stop-color="#A54A95"/>
</linearGradient>
<linearGradient id="paint96_linear_21_397" x1="49.5266" y1="66.3406" x2="53.6403" y2="66.3406" gradientUnits="userSpaceOnUse">
<stop stop-color="#00AECB"/>
<stop offset="1" stop-color="#A54A95"/>
</linearGradient>
<linearGradient id="paint97_linear_21_397" x1="51.5252" y1="72.7817" x2="57.3095" y2="72.7817" gradientUnits="userSpaceOnUse">
<stop stop-color="#00AECB"/>
<stop offset="1" stop-color="#A54A95"/>
</linearGradient>
<linearGradient id="paint98_linear_21_397" x1="49.5691" y1="71.7052" x2="51.7687" y2="71.7052" gradientUnits="userSpaceOnUse">
<stop stop-color="#00AECB"/>
<stop offset="1" stop-color="#A54A95"/>
</linearGradient>
<linearGradient id="paint99_linear_21_397" x1="53.8227" y1="75.2589" x2="57.2983" y2="75.259" gradientUnits="userSpaceOnUse">
<stop stop-color="#00AECB"/>
<stop offset="1" stop-color="#A54A95"/>
</linearGradient>
<linearGradient id="paint100_linear_21_397" x1="49.6803" y1="76.1649" x2="53.9366" y2="76.1649" gradientUnits="userSpaceOnUse">
<stop stop-color="#00AECB"/>
<stop offset="1" stop-color="#A54A95"/>
</linearGradient>
<linearGradient id="paint101_linear_21_397" x1="49.4555" y1="82.7703" x2="52.6457" y2="82.7703" gradientUnits="userSpaceOnUse">
<stop stop-color="#00AECB"/>
<stop offset="1" stop-color="#A54A95"/>
</linearGradient>
<linearGradient id="paint102_linear_21_397" x1="49.5576" y1="77.5285" x2="54.0658" y2="77.5285" gradientUnits="userSpaceOnUse">
<stop stop-color="#00AECB"/>
<stop offset="1" stop-color="#A54A95"/>
</linearGradient>
<linearGradient id="paint103_linear_21_397" x1="59.9242" y1="65.017" x2="66.4472" y2="65.017" gradientUnits="userSpaceOnUse">
<stop stop-color="#00AECB"/>
<stop offset="1" stop-color="#A54A95"/>
</linearGradient>
<linearGradient id="paint104_linear_21_397" x1="59.7162" y1="70.1537" x2="66.4072" y2="70.1537" gradientUnits="userSpaceOnUse">
<stop stop-color="#00AECB"/>
<stop offset="1" stop-color="#A54A95"/>
</linearGradient>
<linearGradient id="paint105_linear_21_397" x1="57.1696" y1="74.2243" x2="66.2281" y2="74.2243" gradientUnits="userSpaceOnUse">
<stop stop-color="#00AECB"/>
<stop offset="1" stop-color="#A54A95"/>
</linearGradient>
<linearGradient id="paint106_linear_21_397" x1="56.9508" y1="78.6577" x2="58.6635" y2="78.6577" gradientUnits="userSpaceOnUse">
<stop stop-color="#00AECB"/>
<stop offset="1" stop-color="#A54A95"/>
</linearGradient>
<linearGradient id="paint107_linear_21_397" x1="53.7278" y1="79.5025" x2="58.6222" y2="79.5025" gradientUnits="userSpaceOnUse">
<stop stop-color="#00AECB"/>
<stop offset="1" stop-color="#A54A95"/>
</linearGradient>
<linearGradient id="paint108_linear_21_397" x1="52.1875" y1="81.3584" x2="54.1772" y2="81.3584" gradientUnits="userSpaceOnUse">
<stop stop-color="#00AECB"/>
<stop offset="1" stop-color="#A54A95"/>
</linearGradient>
<linearGradient id="paint109_linear_21_397" x1="51.5204" y1="68.7136" x2="60.0247" y2="68.7137" gradientUnits="userSpaceOnUse">
<stop stop-color="#00AECB"/>
<stop offset="1" stop-color="#A54A95"/>
</linearGradient>
<linearGradient id="paint110_linear_21_397" x1="53.4106" y1="70.4008" x2="57.4235" y2="70.4008" gradientUnits="userSpaceOnUse">
<stop stop-color="#00AECB"/>
<stop offset="1" stop-color="#A54A95"/>
</linearGradient>
<linearGradient id="paint111_linear_21_397" x1="53.4324" y1="61.1498" x2="60.3668" y2="61.1499" gradientUnits="userSpaceOnUse">
<stop stop-color="#00AECB"/>
<stop offset="1" stop-color="#A54A95"/>
</linearGradient>
<linearGradient id="paint112_linear_21_397" x1="53.6287" y1="66.2899" x2="59.8999" y2="66.2899" gradientUnits="userSpaceOnUse">
<stop stop-color="#00AECB"/>
<stop offset="1" stop-color="#A54A95"/>
</linearGradient>
<linearGradient id="paint113_linear_21_397" x1="56.9451" y1="70.3504" x2="60.1269" y2="70.3504" gradientUnits="userSpaceOnUse">
<stop stop-color="#00AECB"/>
<stop offset="1" stop-color="#A54A95"/>
</linearGradient>
<linearGradient id="paint114_linear_21_397" x1="67.4556" y1="58.8732" x2="72.0226" y2="58.8732" gradientUnits="userSpaceOnUse">
<stop stop-color="#00AECB"/>
<stop offset="1" stop-color="#A54A95"/>
</linearGradient>
<linearGradient id="paint115_linear_21_397" x1="68.2842" y1="55.4223" x2="71.189" y2="55.4223" gradientUnits="userSpaceOnUse">
<stop stop-color="#00AECB"/>
<stop offset="1" stop-color="#A54A95"/>
</linearGradient>
<linearGradient id="paint116_linear_21_397" x1="68.2198" y1="62.8944" x2="69.8569" y2="62.8944" gradientUnits="userSpaceOnUse">
<stop stop-color="#00AECB"/>
<stop offset="1" stop-color="#A54A95"/>
</linearGradient>
<linearGradient id="paint117_linear_21_397" x1="41.3884" y1="39.6534" x2="42.3791" y2="39.6534" gradientUnits="userSpaceOnUse">
<stop stop-color="#00AECB"/>
<stop offset="1" stop-color="#A54A95"/>
</linearGradient>
<linearGradient id="paint118_linear_21_397" x1="60.4707" y1="51.6658" x2="61.4613" y2="51.6658" gradientUnits="userSpaceOnUse">
<stop stop-color="#00AECB"/>
<stop offset="1" stop-color="#A54A95"/>
</linearGradient>
<linearGradient id="paint119_linear_21_397" x1="64.131" y1="42.7423" x2="65.1132" y2="42.7423" gradientUnits="userSpaceOnUse">
<stop stop-color="#00AECB"/>
<stop offset="1" stop-color="#A54A95"/>
</linearGradient>
<linearGradient id="paint120_linear_21_397" x1="56.6843" y1="74.4181" x2="57.675" y2="74.4181" gradientUnits="userSpaceOnUse">
<stop stop-color="#00AECB"/>
<stop offset="1" stop-color="#A54A95"/>
</linearGradient>
<linearGradient id="paint121_linear_21_397" x1="44.1251" y1="49.3303" x2="45.1073" y2="49.3303" gradientUnits="userSpaceOnUse">
<stop stop-color="#00AECB"/>
<stop offset="1" stop-color="#A54A95"/>
</linearGradient>
<linearGradient id="paint122_linear_21_397" x1="35.1003" y1="54.1519" x2="36.091" y2="54.1519" gradientUnits="userSpaceOnUse">
<stop stop-color="#00AECB"/>
<stop offset="1" stop-color="#A54A95"/>
</linearGradient>
<linearGradient id="paint123_linear_21_397" x1="62.4099" y1="64.172" x2="63.4005" y2="64.172" gradientUnits="userSpaceOnUse">
<stop stop-color="#00AECB"/>
<stop offset="1" stop-color="#A54A95"/>
</linearGradient>
<linearGradient id="paint124_linear_21_397" x1="56.7769" y1="39.6534" x2="58.1369" y2="39.6534" gradientUnits="userSpaceOnUse">
<stop stop-color="#00AECB"/>
<stop offset="1" stop-color="#A54A95"/>
</linearGradient>
<linearGradient id="paint125_linear_21_397" x1="49.0112" y1="78.8463" x2="50.3629" y2="78.8463" gradientUnits="userSpaceOnUse">
<stop stop-color="#00AECB"/>
<stop offset="1" stop-color="#A54A95"/>
</linearGradient>
<linearGradient id="paint126_linear_21_397" x1="48.9692" y1="46.4506" x2="50.3293" y2="46.4506" gradientUnits="userSpaceOnUse">
<stop stop-color="#00AECB"/>
<stop offset="1" stop-color="#A54A95"/>
</linearGradient>
<linearGradient id="paint127_linear_21_397" x1="38.7942" y1="66.3987" x2="40.1458" y2="66.3987" gradientUnits="userSpaceOnUse">
<stop stop-color="#00AECB"/>
<stop offset="1" stop-color="#A54A95"/>
</linearGradient>
<clipPath id="clip0_21_397">
<rect width="346" height="113" fill="white"/>
</clipPath>
</defs>
</svg>
